<?xml version="1.0" encoding="UTF-8"?>
<svg version="1.1" viewBox="0 0 855 300" xmlns="http://www.w3.org/2000/svg">
<path d="m71.156 229.97c-14.65-2.0078-26.656-8.3414-32.807-17.308-4.2213-6.1529-5.7048-11.675-5.0613-18.841 2.6502-29.514 45.924-39.744 92.213-21.799 10.974 4.2542 30.501 13.139 30.496 13.875-9e-3 1.3484-12.928 15.381-18.996 20.633-21.285 18.424-43.844 26.455-65.844 23.44zm-34.156 68.948c-16.857-3.3251-32.73-19.831-35.92-37.352-1.5087-8.2868-1.5017-214.9 0.0075974-223.13 1.4514-7.9159 6.9952-18.231 13.055-24.291 6.2877-6.2877 16.516-11.681 24.869-13.114 4.5675-0.78355 38.611-1.0266 114.99-0.82081 108.44 0.29213 108.5 0.29349 114.22 2.4547 12.7 4.8042 23.976 15.742 28.965 28.095l2.3192 5.743 0.27758 83.25c0.26858 80.548 0.21732 83.25-1.5795 83.25-5.5543 0-39.616-10.562-73.241-22.71l-23.543-8.5058 4.7944-9.2984c6.245-12.112 13.031-29.078 16.788-41.978 1.6513-5.6687 3.0024-10.802 3.0024-11.407 0-0.77616-8.6995-1.1008-29.5-1.1008h-29.5v-21h73.1l-0.29991-5.75-0.2999-5.75-36.25-0.26247-36.25-0.26247v-34.975h-16.465c-15.255 0-16.541 0.14215-17.5 1.9343-0.5864 1.0957-1.0352 8.6825-1.0352 17.5v15.566h-73v12h73v20.971l-30.25 0.26467-30.25 0.26466v12l58.719 0.25798 58.719 0.25798-3.0782 8.7213c-2.9984 8.4952-10.976 27.315-12.802 30.203-0.76807 1.2144-2.7926 0.85785-12.926-2.2762-32.712-10.118-60.508-15.21-78.258-14.338-18.41 0.90475-35.541 8.0582-45.567 19.028-23.834 26.079-16.637 65.127 14.846 80.541 10.609 5.194 17.81 7.0375 30.42 7.7879 31.428 1.8702 60.739-10.94 88.715-38.773l12.79-12.724 18.21 8.2835c18.299 8.3236 46.451 20.598 80.587 35.136l18.377 7.8263-0.54794 6.5358c-1.4698 17.531-13.452 33.342-30.481 40.221l-5.7248 2.3124-111 0.15309c-61.309 0.08456-113.01-0.24428-115.5-0.73457z" fill="#0ae"/>
<g fill="#3f3a39">
<path d="m409.66 254.5c-0.20021-0.55-2.2984-6.8304-4.6627-13.957l-4.2987-12.957-4.2177 11.957c-2.3197 6.5761-4.4961 12.857-4.8364 13.957-0.5887 1.9031-0.15825 2 8.8804 2 5.9088 0 9.3615-0.37797 9.1351-1zm-36.257 14.296c4.801-13.133 20.278-54.947 21.115-57.046 0.5391-1.352 1.8675-1.7471 5.8408-1.7372l5.143 0.0128 12.606 33.987 12.606 33.987h-13.318l-2.264-7.0294-2.264-7.0294-12.599 0.27937-12.599 0.27938-2.1651 6.5-2.1651 6.5-6.6671 0.29566-6.6671 0.29565 3.3982-9.2956z"/>
<path d="m471 244v-34h13v59h29v9h-42z"/>
<path d="m558 244v-34h13v68h-13z"/>
<path d="m653.29 239.98c6.0312-4.7441 5.7034-15.187-0.59722-19.028-2.4838-1.5145-5.033-1.9493-11.446-1.9522l-8.25-0.00374v23h8.8651c7.3739 0 9.2962-0.33907 11.428-2.0156zm-32.293 4.0156v-34h16.532c12.66 0 17.4 0.36255 20.236 1.5477 7.8022 3.26 12.232 10.085 12.232 18.847 0 7.0093-1.2427 10.203-5.7921 14.885-4.7047 4.8422-10.96 6.7197-22.389 6.7197h-8.8185v26h-12z"/>
<path d="m739.66 254.5c-0.20021-0.55-2.2769-6.7658-4.6148-13.813-2.338-7.0471-4.3765-12.672-4.5302-12.5-0.24884 0.27874-9.5131 26.707-9.5131 27.138 0 0.0962 4.28 0.17483 9.511 0.17483 5.9167 0 9.3735-0.37791 9.147-1zm-39.192 21.799c0.39479-0.9892 5.8134-15.524 12.041-32.299s11.635-31.288 12.015-32.25c0.53415-1.3524 1.8596-1.7476 5.8342-1.7392l5.143 0.0108 12.264 33.239c6.7454 18.282 12.258 33.577 12.25 33.989-8e-3 0.4125-2.8507 0.75-6.3174 0.75h-6.3032l-2.264-7.0294-2.264-7.0294-12.599 0.27937-12.599 0.27938-2.1651 6.5-2.1651 6.5-6.7941 0.29855c-6.2004 0.27247-6.7314 0.14138-6.0763-1.5z"/>
<path d="m810 264.35v-13.653l-10.543-20.347-10.543-20.347h13.684l6.6603 14.23 6.6603 14.23 6.7181-14.23 6.7181-14.23h13.607l-3.3488 6.25c-1.8418 3.4375-6.5583 12.457-10.481 20.043l-7.1323 13.793v27.914h-12z"/>
<path d="m352.21 180.91 0.29381-7.0895 11-3.766c16.721-5.7246 35.426-14.242 46.827-21.322l3.8269-2.3766-5.7909-4.3721c-14.297-10.794-37.363-36.692-37.363-41.949 0-0.66195 4.8195-1.0352 13.367-1.0352h13.367l2.6731 4.0393c5.4672 8.2616 28.141 29.961 31.307 29.961 1.6576 0 18.608-18.1 22.944-24.5 4.2132-6.2189 8.5724-14.352 9.7768-18.241l0.694-2.2409-51.314-0.25912-51.314-0.25912-0.2999-5.75-0.29991-5.75h52.1v-19h-61v-12h61v-9.8089c0-13.882-1.0745-14.716 17.421-14.509l15.579 0.1739v24.144h62v12h-62v19h26.5c16.476 0 26.5 0.36736 26.5 0.97121 0 2.2355-6.2161 17.759-9.5693 23.897-7.2578 13.286-18.842 27.1-31.704 37.805l-8.7908 7.3166 3.2821 2.0283c7.8714 4.8643 30.399 15.821 43.282 21.05l14 5.6828 0.29774 6.7143 0.29774 6.7143-3.2977-0.67146c-16.197-3.2978-43.345-13.258-63.137-23.162l-12.84-6.4255-10.66 5.4468c-18.536 9.471-38.916 17.213-58.342 22.165-5.3247 1.3572-9.9569 2.4677-10.294 2.4677s-0.48037-3.1903-0.31878-7.0895z"/>
<path d="m603.68 135.25c-0.24135-0.4125-4.1531-12.45-8.6928-26.75s-8.4669-26.562-8.7272-27.25c-0.36347-0.96002 2.5314-1.25 12.479-1.25 11.095 0 13.168 0.25096 14.459 1.75 1.1604 1.3477 10.652 29.937 17.264 52l0.67429 2.25h-13.508c-7.4296 0-13.706-0.3375-13.947-0.75zm23.321 42.326v-6.5765h7.8c4.7333 0 8.2718-0.47179 9-1.2 0.90274-0.90274 1.2-14.156 1.2-53.5v-52.3h-68v-12h68v-14l-0.0877-14.789 14.175-0.13151 14.044 0.08767-0.13148 14.833v14h11v12h-11v55.596c0 49.404-0.18004 55.9-1.6165 58.332-3.0937 5.2373-4.4142 5.5472-25.134 5.8986l-19.25 0.32646zm-88-36.047v-44.529h-12.107c-11.114 0-12.053-0.14348-11.449-1.75 2.359-6.2772 30.092-70.99 30.856-72 1.0472-1.3847 29.751-1.869 29.639-0.5-0.034 0.4125-4.4553 10.65-9.8252 22.75l-9.7635 22 4.8332 0.30254 4.8332 0.30254-0.25797 58.697-0.25797 58.697-13.25 0.27903-13.25 0.27902z"/>
<path d="m703 51.5v-14.5h58v-16h31.916l0.29207 7.75 0.29206 7.75 26.591 0.26603 26.591 0.26603 2.4092 2.5631c2.2616 2.4061 2.4092 3.2782 2.4092 14.234v11.671h-31l-0.5-8.5-0.5-8.5h-85.5l1.6e-4 8.75 1.6e-4 8.75h-31zm0 124.5v-6h59v-48h-59v-12h59v-22h-59v-12h149.1l-0.29991 5.75-0.2999 5.75-29.75 0.26488-29.75 0.26488v21.94l29.75 0.26488 29.75 0.26488v11l-29.75 0.26488-29.75 0.26488v47.97h30.135l-0.7278-2.25c-2.1918-6.776-6.407-21.193-6.407-21.913 0-1.4026 26.373-1.018 28.307 0.41281 0.99658 0.73735 3.7407 8.1685 6.6911 18.12 2.7509 9.2782 5.0017 17.041 5.0017 17.25s-34.2 0.38049-76 0.38049h-76z"/>
</g>
</svg>
