<?xml version="1.0" encoding="UTF-8"?>
<svg width="56px" height="30px" viewBox="0 0 56 30" version="1.1" xmlns="http://www.w3.org/2000/svg" xmlns:xlink="http://www.w3.org/1999/xlink">
    <title>Carte Blanche</title>
    <g id="Page-1" stroke="none" stroke-width="1" fill="none" fill-rule="evenodd">
        <g id="Carte-Blanche">
            <rect id="Rectangle-Copy-32" fill="#FFFFFF" x="0" y="0" width="56" height="30"></rect>
            <g id="carte-blanche" transform="translate(0.000000, 2.000000)" fill-rule="nonzero">
                <path d="M18.4692708,26.4101734 C21.1709183,26.4101734 27.6482635,26.2872565 30.349911,25.7964305 C36.611941,24.3226898 37.103188,20.7614654 36.9806919,17.6919089 C36.8483036,14.3782022 35.8230835,9.91677941 34.4019614,5.5349159 C32.9282206,0.991408163 29.8586641,0.500161253 27.1570166,0.377454762 C25.5574122,0.304841144 21.0480013,0.00912481665 18.5919772,0.00912481665 C16.1359532,0.00912481665 11.4421668,0.304841144 9.84298343,0.377454762 C7.14154637,0.500161253 4.07156889,0.991408163 2.59803863,5.5349159 C1.17691647,9.91656893 0.151906847,14.3782022 0.0195185405,17.6919089 C-0.103398424,20.7614654 0.387848486,24.3226898 6.65050993,25.7964305 C9.35194699,26.2872565 15.7678337,26.4101734 18.4692708,26.4101734 Z" id="Path" fill="#33348E"></path>
                <path d="M18.4741117,24.8973001 C20.9370814,24.8973001 26.8213101,24.9067558 29.2844903,24.4586561 C35.0733742,23.5378313 35.5362071,20.1089952 35.4244453,17.310319 C35.3036331,14.2891716 34.2289515,10.2522754 32.9583185,6.24926552 C31.6527467,2.13617763 28.8161851,1.98505712 26.3530049,1.87308482 C24.8944183,1.8069959 20.8227939,1.65377064 18.5833478,1.65377064 C16.3443227,1.65377064 12.02497,1.80678543 10.5670149,1.87308482 C8.10383466,1.98505712 5.30494802,2.10692171 3.96149086,6.24926552 C2.66560087,10.2442773 1.64459026,14.1576252 1.52356756,17.1787726 C1.41159526,19.9774488 1.94893603,23.4062849 7.79485846,24.4586561 C10.36959,24.8532954 16.0111419,24.8973001 18.4741117,24.8973001 Z" id="Path" fill="#FFFFFF"></path>
                <path d="M18.438752,24.1997728 C20.3420707,24.1997728 26.1038034,24.2614418 29.4808628,23.6472779 C33.4384102,22.9278769 34.7566105,20.6981126 34.638324,17.2619099 C34.515407,13.7006856 33.1033352,8.91197532 31.9979244,5.96470433 C30.8929346,3.01764381 28.8054509,2.71056188 26.2267204,2.58785539 C23.9883267,2.48156589 20.6491526,2.34223193 18.438752,2.34223193 C16.2285618,2.34223193 12.9407435,2.48156589 10.7025603,2.58785539 C8.12382972,2.71056188 6.03634606,3.01764381 4.93114575,5.96470433 C3.82594544,8.91176484 2.41387366,13.7006856 2.29116717,17.2619099 C2.17245969,20.6981126 3.4910809,22.9278769 7.44841783,23.6472779 C10.8254773,24.2614418 16.5354333,24.1997728 18.438752,24.1997728 Z" id="Path" fill="#33348E"></path>
                <path d="M4.91051927,15.5337058 L6.94075393,15.5337058 C7.86999777,15.5337058 8.81797381,15.7561771 8.81797381,16.8634822 C8.81797381,17.2835888 8.60813098,17.6971707 8.18781389,17.8308219 L8.18781389,17.8691282 C8.70979004,18.0537141 9.04065557,18.4355144 9.04065557,19.0082148 C9.04065557,19.9949181 8.12425067,20.3323084 7.28445839,20.3323084 L4.91051927,20.3323084 L4.91051927,15.5337058 Z M13.2812909,11.3063304 C12.9742089,10.999459 12.5751497,10.999459 12.1565164,10.999459 C11.6347508,10.999459 11.101409,11.5165942 11.101409,12.0387808 C11.101409,12.5668607 11.6539039,13.0566343 12.1760905,13.0566343 C12.577044,13.0566343 12.7287959,12.9951759 12.9742089,12.8724694 L13.3732681,14.2230827 C13.0933373,14.3567338 12.421714,14.5301646 11.8896351,14.5145895 C10.5217629,14.4743889 9.45192226,13.451905 9.45192226,12.0834014 C9.45192226,10.6831162 10.5529131,9.56297219 11.9595125,9.56297219 C12.3541518,9.56297219 12.7616299,9.63327059 13.1305913,9.76039704 L13.2812909,11.3063304 L13.2812909,11.3063304 Z M14.0592037,19.8932591 L14.0213183,19.8932591 C13.7220239,20.2119171 13.4547216,20.4152352 12.990205,20.4152352 C12.0738001,20.4152352 11.5646628,19.4862019 11.5646628,18.6649313 C11.5646628,17.8123001 12.0801143,16.8832668 13.034615,16.8832668 C13.4420932,16.8832668 13.7790625,17.0295464 14.0213183,17.3606224 L14.0592037,17.3606224 L14.04868,16.9516709 L15.4649612,16.9594584 L15.4649612,20.3390436 L14.04868,20.3390436 L14.0592037,19.8932591 Z" id="Shape" fill="#FFFFFF"></path>
                <path d="M13.6144716,19.2231091 C13.9916415,19.2231091 14.1459191,18.9225518 14.1459191,18.6064195 C14.1459191,18.2911291 13.930183,18.0600283 13.6144716,18.0600283 C13.2987602,18.0600283 13.0983885,18.3218583 13.0983885,18.6219946 C13.0981783,18.945704 13.2522454,19.2231091 13.6144716,19.2231091 L13.6144716,19.2231091 Z" id="Path" fill="#33348E"></path>
                <path d="M23.4747695,18.152216 C23.3034434,18.0055155 23.1055976,17.9680511 22.8704979,17.9680511 C22.5526818,17.9680511 22.1839309,18.2595579 22.1839309,18.565377 C22.1839309,18.8326793 22.5712035,19.1347099 22.8382953,19.1347099 C23.0931797,19.1347099 23.2838693,19.1145043 23.474559,18.9810637 L23.4732962,20.1757155 C23.2184118,20.2584319 22.8637627,20.3348341 22.5775177,20.3348341 C21.4828411,20.3348341 20.6996664,19.7173026 20.6996664,18.5845302 C20.6996664,17.5856194 21.4314854,16.8028656 22.4438666,16.8028656 C22.7871501,16.8028656 23.143904,16.8662183 23.4743485,16.9741916 L23.4743485,18.152216 L23.4747695,18.152216 L23.4747695,18.152216 Z M25.7142156,15.1571674 L24.148708,15.1571674 L24.148708,20.3182066 L25.6836968,20.3182066 L25.6836968,18.5748483 C25.6836968,18.3643741 25.8476562,18.1736844 26.1025406,18.1736844 C26.3376403,18.1736844 26.4816047,18.3965767 26.4816047,18.5748483 L26.4816047,20.3182066 L27.7711804,20.3182066 L27.7711804,18.2439828 C27.7711804,17.4991144 27.6680481,16.8630612 26.8278348,16.8630612 C26.3572144,16.8630612 26.0196137,16.8552737 25.7142156,17.2179208 L25.7142156,15.1571674 Z M20.4950855,12.258095 C20.069296,12.258095 19.4824938,12.3808015 19.4824938,13.1921798 L19.4824938,14.4901745 L18.2028104,14.4901745 L18.2028104,11.1112208 L19.4824938,11.1112208 L19.4824938,11.563109 C19.6904424,11.2465557 20.1307545,11.1415291 20.4950855,11.0916467 L20.4950855,12.258095 L20.4950855,12.258095 Z M22.7054861,10.7151083 L23.2276727,10.7079521 L23.2276727,11.9512236 L22.7054861,11.9497502 L22.7054861,14.502382 L21.4942067,14.502382 L21.4942067,11.9497502 L20.9560241,11.9512236 L20.9560241,10.7079521 L21.4942067,10.7151083 L21.4942067,9.64842473 L22.7054861,9.64842473 L22.7054861,10.7151083 L22.7054861,10.7151083 Z M9.65902893,15.5427562 L11.1096175,15.5427562 L11.1096175,20.3426216 L9.65902893,20.3426216 L9.65902893,15.5427562 Z M29.8534022,18.929287 C29.8534022,19.2026931 29.8982333,19.5085121 30.2419377,19.5085121 C30.4136847,19.5085121 30.6862489,19.387279 30.7184514,19.2281604 L32.1703028,19.2281604 C31.9541458,20.0429063 31.0438446,20.4186028 30.2674051,20.4186028 C29.2042996,20.4186028 28.2308562,19.8709488 28.2308562,18.7063948 C28.2308562,17.5862508 29.0961159,16.8862134 30.1720603,16.8862134 C31.3749206,16.8862134 32.3233176,17.6626529 32.2401803,18.929287 L29.8534022,18.929287 L29.8534022,18.929287 Z" id="Shape" fill="#FFFFFF"></path>
                <path d="M30.6235275,18.2288287 C30.6235275,18.0002536 30.4587262,17.7897794 30.2232055,17.7897794 C29.9748459,17.7897794 29.8536127,17.9937289 29.8536127,18.2288287 L30.6235275,18.2288287 Z" id="Path" fill="#33348E"></path>
                <path d="M17.7326109,17.4768042 L17.850266,17.4858546 C18.168503,17.1166827 18.4101275,16.8683231 18.9384179,16.8683231 C19.7782101,16.8683231 20.1094966,17.498483 20.1094966,18.2429304 L20.1094966,20.3243104 L18.6534357,20.3243104 L18.6534357,18.675876 C18.6534357,18.4788721 18.467587,18.1985204 18.1876562,18.1985204 C17.9136187,18.1985204 17.7709172,18.4788721 17.7709172,18.675876 L17.7709172,20.3243104 L16.2717091,20.3243104 L16.2717091,16.9447252 L17.7326109,16.9447252 L17.7326109,17.4768042 L17.7326109,17.4768042 Z M16.0854394,14.0603861 L16.047554,14.0603861 C15.7482596,14.3790441 15.4809573,14.5823622 15.0164406,14.5823622 C14.1000357,14.5823622 13.591109,13.6533289 13.591109,12.8320583 C13.591109,11.9794271 14.1063499,11.0503937 15.0610612,11.0503937 C15.4683288,11.0503937 15.8055086,11.1966734 16.047554,11.5277494 L16.0854394,11.5277494 L16.0902803,11.1190084 L17.4869874,11.1267959 L17.4869874,14.5059601 L16.0902803,14.5059601 L16.0854394,14.0603861 L16.0854394,14.0603861 Z" id="Shape" fill="#FFFFFF"></path>
                <path d="M15.6404968,13.390236 C16.0176666,13.390236 16.1719443,13.0898893 16.1719443,12.7739674 C16.1719443,12.4584665 15.9562082,12.2271553 15.6404968,12.2271553 C15.3247854,12.2271553 15.1244139,12.4894062 15.1244139,12.789332 C15.1244139,13.112831 15.2784811,13.390236 15.6404968,13.390236 L15.6404968,13.390236 Z" id="Path" fill="#33348E"></path>
                <path d="M25.2181277,13.0044367 C25.2181277,13.2776323 25.2625378,13.5832409 25.6066632,13.5832409 C25.7779893,13.5832409 26.0505534,13.4628497 26.082756,13.3033102 L27.5350283,13.3033102 C27.3184503,14.118056 26.4081492,14.4933316 25.6317096,14.4933316 C24.5690251,14.4933316 23.5951608,13.9460985 23.5951608,12.7815445 C23.5951608,11.661611 24.4608414,10.9615736 25.5363648,10.9615736 C26.7396461,10.9615736 27.6876222,11.7380131 27.6044848,13.0046472 L25.2181277,13.0046472 L25.2181277,13.0044367 L25.2181277,13.0044367 Z" id="Path" fill="#FFFFFF"></path>
                <path d="M25.9880426,12.3041889 C25.9880426,12.0751929 25.8228203,11.8653501 25.5872996,11.8653501 C25.3393609,11.8653501 25.2181277,12.0688787 25.2181277,12.3041889 L25.9880426,12.3041889 Z M6.68629056,17.3791441 C6.94075393,17.3791441 7.22678844,17.3536767 7.22678844,17.0228112 C7.22678844,16.6668992 6.90223714,16.6919457 6.64798424,16.6919457 L6.52696155,16.6919457 L6.52696155,17.3793546 L6.68629056,17.3793546 L6.68629056,17.3791441 L6.68629056,17.3791441 Z M6.52696155,19.1864865 L6.72417592,19.1864865 C7.01084186,19.1864865 7.42442377,19.1803828 7.42442377,18.7857436 C7.42442377,18.3845796 6.97884977,18.3906781 6.69891901,18.3906781 L6.52696155,18.3906781 L6.52696155,19.1864865 L6.52696155,19.1864865 Z" id="Shape" fill="#33348E"></path>
                <path d="M32.3803553,20.0567976 C32.3808021,19.8830451 32.4502674,19.7165895 32.5734644,19.5940635 C32.6966614,19.4715375 32.863494,19.4029824 33.0372463,19.4034827 C33.2105154,19.4034827 33.3766879,19.4723164 33.4992077,19.5948362 C33.6217275,19.717356 33.6905633,19.8835284 33.6905633,20.0567976 C33.6912295,20.2306008 33.6227285,20.3975308 33.5001662,20.5207643 C33.377604,20.6439978 33.2110506,20.7134095 33.0372463,20.7136886 C32.8629425,20.7139676 32.6956973,20.6448497 32.5724457,20.5215981 C32.4491942,20.3983466 32.3800762,20.2311013 32.3803553,20.0567976 L32.3803553,20.0567976 Z" id="Path" fill="#FFFFFF"></path>
                <path d="M33.6116305,20.0567976 C33.6116306,19.7395399 33.354504,19.4823191 33.0372463,19.4822004 C32.8845628,19.4817554 32.7379794,19.5420953 32.6298576,19.6499013 C32.5217357,19.7577072 32.4609671,19.9041134 32.4609678,20.0567976 C32.456986,20.2649667 32.5657644,20.4590497 32.7454097,20.5643007 C32.9250551,20.6695516 33.1475432,20.6695516 33.3271886,20.5643007 C33.506834,20.4590497 33.6156123,20.2649667 33.6116305,20.0567976 L33.6116305,20.0567976 Z" id="Path" fill="#33348E"></path>
                <path d="M33.36285,20.4238647 L33.25635,20.4238647 L33.0471386,20.0860535 L32.8827582,20.0860535 L32.8827582,20.4238647 L32.7935171,20.4238647 L32.7935171,19.6914143 L33.1125961,19.6914143 C33.174686,19.6914143 33.235934,19.6952028 33.2910782,19.7276158 C33.3462225,19.7583451 33.3733737,19.8238026 33.3733737,19.8850506 C33.3733737,20.0298569 33.272346,20.0826859 33.141852,20.0860535 L33.36285,20.4238647 Z" id="Path" fill="#FFFFFF"></path>
                <path d="M33.0199874,20.0157551 C33.1226988,20.0157551 33.2822383,20.033014 33.2822383,19.8833668 C33.2822383,19.7703421 33.182684,19.7566613 33.0919696,19.7566613 L32.8827582,19.7566613 L32.8827582,20.0155446 L33.0199874,20.0155446 L33.0199874,20.0157551 Z" id="Path" fill="#33348E"></path>
                <path d="M15.5106342,5.39495052 C16.5440628,4.06896272 17.4981425,3.74251715 17.9961246,3.55772075 C18.5787174,3.34114274 19.2951717,3.49184231 19.5043831,3.76798453 C19.6325549,3.67496097 19.7724716,3.59930543 19.9204907,3.54298755 C20.3176557,3.38997277 20.8084816,3.38029095 20.9490784,3.39502415 C21.2746821,3.36534728 21.770349,3.58739762 21.8741128,3.66148456 C22.162673,3.51331068 22.4217668,3.52825436 22.6145612,3.52825436 C22.6886481,3.52825436 22.7181145,3.60949742 22.6145612,3.60949742 C22.4588103,3.59476422 22.4291334,3.60949742 22.3108469,3.62444109 C21.9481997,3.70589463 22.1111068,3.88332442 22.1702501,3.97235503 C22.3182135,4.1647285 22.4811205,4.34236877 22.3777777,4.93443285 C22.3005336,5.37390309 21.8002363,5.64478346 21.7114162,5.7041372 C21.622596,5.76328047 21.5931296,5.8668338 21.696683,5.94092074 C21.8446464,6.10361734 22.3478903,6.48857475 22.2590702,7.28774549 C22.1702501,8.08691624 21.2822592,8.51628372 20.5127653,8.53122739 C19.7428505,8.54596059 19.5281667,7.66533631 19.6466637,7.26543522 C19.6837072,7.19892536 19.6392971,7.16924849 19.5948871,7.23575835 C19.4542903,7.45044209 18.6624861,8.19068005 18.0706325,8.44219678 C17.5307661,8.59857915 17.1843254,8.42135983 17.0197346,8.02777297 C16.8492504,8.21277984 15.9762032,8.76801093 15.4508595,8.42746358 C14.1779112,7.43591937 15.258486,5.7336036 15.3765621,5.55596332 C15.3971885,5.52818072 15.4159207,5.49787243 15.4363367,5.47072125 C15.1408309,5.36337938 14.8926817,5.20825986 14.7550316,5.07481918 C13.8744073,4.06833129 14.7956531,3.50215555 15.1397785,3.46890062 C15.6432329,3.42449055 16.2424531,3.68337388 16.3018069,3.73536102 C16.3609501,3.78713769 16.3388504,3.82418116 16.2870737,3.77977109 C15.9837803,3.57982055 15.4064494,3.50594408 15.139989,3.55772075 C14.9840276,3.58887094 14.71883,3.73367723 14.5849684,4.11274136 C14.3637599,4.81425205 14.9913942,5.21731025 15.5106342,5.39495052 L15.5106342,5.39495052 Z M18.1059922,4.86350303 C18.0910485,4.77363052 18.095258,4.66165822 18.1217778,4.54168789 C18.1661878,4.34194782 18.2844744,4.35668102 18.336672,4.38635789 C18.3722421,4.40656342 18.5305188,4.49264739 18.1059922,4.86350303 L18.1059922,4.86350303 Z M20.3565934,5.84789112 C20.5891675,5.90050968 21.1147217,5.94681402 21.4003352,5.85167965 C21.6000753,6.00700965 22.0662758,6.53256387 21.6815288,7.39845495 C21.2700517,8.3243312 20.7491279,8.4493529 20.5197109,8.4493529 C20.290294,8.4493529 19.7792625,8.3087561 19.8459829,7.83518903 C19.9127032,7.36162196 20.290294,6.70031185 20.638208,6.63380198 C21.1414519,6.52288205 21.2597384,6.92257266 21.1488185,7.23323266 C21.0480013,7.51547864 20.9046684,7.66996674 20.8232148,7.78088667 C20.7788048,7.84760701 20.8305814,7.93621667 20.8897247,7.87707341 C21.0080112,7.78088667 21.1856515,7.56620293 21.2892048,7.22586606 C21.439273,6.73272488 21.1709183,6.47110538 20.8526812,6.47110538 C20.8272138,6.47110538 20.3347041,6.4586874 19.971636,6.77692448 C19.9272259,6.81396795 19.8832368,6.79165767 19.9202803,6.71778121 C20.0394087,6.48710143 20.1600104,6.14129223 20.2338869,5.92218853 C20.2492515,5.85904625 20.2940825,5.83694645 20.3565934,5.84789112 L20.3565934,5.84789112 Z M20.5123443,5.31875884 C20.6287366,5.02767295 21.2079618,4.16430755 21.5482986,3.95699041 C21.8886355,3.74988375 21.9330456,3.88290347 22.0218657,4.07527694 C22.1386789,4.32784605 22.0071325,4.75616116 21.9330456,4.93380143 C21.8589586,5.1114417 21.7109952,5.4850335 21.3853916,5.58858683 C21.1189312,5.5144999 20.7785943,5.52586551 20.5862208,5.5405987 C20.4681448,5.55575285 20.4532011,5.46693272 20.5123443,5.31875884 L20.5123443,5.31875884 Z M17.9222482,6.29346511 C17.8862571,6.48541763 17.7991207,6.71420315 17.7296642,6.90278808 C17.6282156,7.17935125 17.3205023,7.5893551 17.0931901,7.82529674 C17.0694065,7.49885117 17.1853778,7.09305681 17.285774,6.91752128 C17.3777513,6.756298 17.6378975,6.42732674 17.9222482,6.29346511 L17.9222482,6.29346511 Z M19.4387152,3.91615841 C19.4970165,4.06243801 19.4827043,4.26701899 19.3576826,4.62314143 C19.2825433,4.83782517 19.1718338,4.96516209 19.0579672,5.05882314 C18.9954564,4.97273917 18.9565187,4.84876983 18.9655691,4.69722837 C18.9786185,4.47391518 19.1274238,4.19672059 19.4387152,3.91615841 Z M18.0325367,6.25052837 C18.1615574,6.21706296 18.2920514,6.23053331 18.4105484,6.32524673 C18.7803517,6.62117353 18.3808716,7.13199454 18.3067846,7.26501427 C18.1217778,7.55378495 18.2402748,7.47969801 18.3808716,7.30205774 C18.4526433,7.21155381 18.8986382,6.53235339 18.4844249,6.25115979 C18.4109694,6.2044345 18.2472204,6.13518847 18.0407452,6.15665685 C18.0540051,5.9167162 17.9521355,5.85694151 17.9146711,5.81442571 C17.6038006,5.49618864 16.9229164,5.91082292 16.6269896,6.28083666 C16.361792,6.61254408 16.2940193,6.9246774 16.2940193,7.15409434 C16.2940193,7.29490162 16.3531626,7.35404488 16.3605292,7.22818128 C16.4419827,6.85816754 16.6861329,6.45847693 16.7823196,6.33261332 C17.1647513,5.78622216 17.670521,5.74054925 17.8553174,5.89608972 C17.923932,5.95354919 17.9428746,6.05689205 17.9323509,6.18254518 C17.7027235,6.2412675 17.4326851,6.41469828 17.1820102,6.84343434 C17.0826664,7.05622381 16.861037,7.51400532 16.979534,7.9294815 C16.9544875,7.95137082 16.9355449,7.96968208 16.9155498,7.98294196 C16.7528532,8.10122849 15.9978821,8.64909297 15.5834583,8.30854563 C15.315735,8.05492415 15.0480117,7.02338983 16.1081706,5.59679533 C16.1525806,5.5978477 16.1902555,5.60247814 16.2346656,5.59995244 C16.7627455,5.5692232 17.5410793,5.44441197 18.0333786,5.0771344 C18.0784201,5.18237152 18.1691345,5.27077071 18.3067846,5.31854837 C18.4962115,5.38442681 18.773827,5.34885666 19.0127153,5.18658101 C19.0468121,5.21289029 19.0937479,5.23856815 19.1429988,5.2520385 C19.6386657,5.38737345 20.0535105,4.75637163 20.1048662,4.67470762 C20.1570638,4.59346456 20.090133,4.56378769 20.0535105,4.62293095 C19.8908139,4.91170163 19.5498456,5.19289524 19.2909622,5.19289524 C19.2252943,5.19289524 19.1573111,5.16448121 19.1019564,5.11165217 C19.2511826,4.98052671 19.3844128,4.79152083 19.4759691,4.53432129 C19.5500561,4.32700415 19.6350877,4.01339751 19.5483723,3.83175823 C19.9478524,3.51352116 20.6308414,3.45374647 20.9562346,3.46869014 C21.104198,3.46869014 21.5186218,3.55751028 21.6074419,3.73515055 C21.3155141,3.89447956 20.4317327,4.56020963 19.816306,5.58521925 C19.5540551,6.02237427 18.8691718,7.34667828 18.528835,7.83497855 C18.1882876,8.32327883 17.7738638,8.56027284 17.3299736,8.27907923 C17.2127395,8.20478182 17.142862,8.08375912 17.1117118,7.93958426 C17.2952454,7.76867916 17.5642315,7.50663872 17.870261,6.776714 C17.9656059,6.54940181 18.0140149,6.37849671 18.0325367,6.25052837 L18.0325367,6.25052837 Z M18.0045436,4.94727178 C17.9860942,4.96314893 17.9672146,4.97851928 17.947926,4.99336564 C17.5408688,5.3101294 16.762956,5.51071136 16.190466,5.50903809 C16.2197219,5.46566987 16.2346656,5.42757403 16.2790757,5.37811258 C16.619623,4.87486864 17.9073045,3.38008048 18.9283151,3.58718715 C19.1522597,3.64506757 19.3216915,3.7052632 19.4084069,3.84270289 C19.1366846,4.07148841 18.9693576,4.35857529 18.9133714,4.62314143 C18.8900088,4.73427183 18.8472825,4.98347335 18.96599,5.13817193 C18.7098428,5.28655628 18.4368577,5.23667388 18.3511947,5.21520551 C18.2865791,5.19899899 18.1986009,5.11859782 18.1455614,4.98452572 C18.2006699,4.93435796 18.2508512,4.87903169 18.295419,4.81930343 C18.5543024,4.47138949 18.4656927,4.27164942 18.336251,4.24576109 C18.2398538,4.23081742 18.1327224,4.25691622 18.0436918,4.55284303 C18.0058064,4.6814428 17.9860219,4.82056628 18.0045436,4.94727178 L18.0045436,4.94727178 Z" id="Shape" fill="#FFFFFF"></path>
            </g>
        </g>
    </g>
</svg>