<?xml version="1.0" encoding="UTF-8"?>
<svg width="56px" height="30px" viewBox="0 0 56 30" version="1.1" xmlns="http://www.w3.org/2000/svg" xmlns:xlink="http://www.w3.org/1999/xlink">
    <title>Diners Club</title>
    <g id="Page-1" stroke="none" stroke-width="1" fill="none" fill-rule="evenodd">
        <g id="Diners-Club">
            <rect id="Rectangle-Copy-13" fill="#FFFFFF" x="0" y="0" width="56" height="30"></rect>
            <g id="diners-club-international-2" transform="translate(1.000000, 2.000000)" fill-rule="nonzero">
                <path d="M2.17965609,16.4814445 C2.20656085,16.3874324 2.23346562,16.2866169 2.61662658,16.2866169 C3.80600276,16.2866169 4.03422938,17.1129334 4.03422938,17.7917375 C4.03422938,18.201494 3.81249701,20.2709961 1.69598882,20.2709961 C1.38024439,20.2709961 1.2188158,20.2307936 1.2188158,20.0090612 C1.2188158,19.9014422 1.3063336,19.605799 1.36663738,19.3840666 L2.17965609,16.4814445 L2.17965609,16.4814445 Z M0.950386646,16.1922956 C1.29303584,16.2192003 1.46776219,16.2529086 1.46776219,16.4814445 C1.46776219,16.6159683 1.41395266,16.8240937 1.3938514,16.8980045 L0.56753493,19.8680432 C0.453421616,20.2846031 0.352606059,20.3047044 0.0232546235,20.3650082 L0.0232546235,20.4726272 L1.72320283,20.4726272 C3.69869294,20.4726272 4.78045005,19.2294415 4.78045005,17.8724518 C4.78045005,17.1670521 4.36389007,16.0849858 2.81856695,16.0849858 L0.950695896,16.0849858 L0.950695896,16.1922956 L0.950386646,16.1922956 Z M6.17083884,19.7805254 C5.90890394,20.1769841 5.61326077,20.546538 5.23690331,20.546538 C4.92115888,20.546538 4.92115888,20.2508949 4.92115888,20.1299781 C4.92115888,19.8142336 5.45183218,18.1476844 5.45183218,17.9596603 C5.45183218,17.8186422 5.39802265,17.784934 5.02846869,17.784934 L5.02846869,17.6773149 C5.28390934,17.6640172 5.8414874,17.5563981 6.1034223,17.5093921 L6.12352356,17.5226898 L5.53223723,19.6862041 C5.50533246,19.7802161 5.42461817,20.0489545 5.42461817,20.1296688 C5.42461817,20.1766748 5.47162419,20.2304844 5.53223723,20.2304844 C5.61295152,20.2304844 5.80777913,20.0959605 6.08332104,19.7063053 L6.17083884,19.7805254 L6.17083884,19.7805254 Z M6.03662426,16.7903854 C5.86870142,16.7903854 5.71407633,16.6759629 5.71407633,16.4409327 C5.71407633,16.2059026 5.86870142,16.0781823 6.02982076,16.0781823 C6.25155313,16.0781823 6.36566645,16.2999146 6.36566645,16.4477362 C6.36566645,16.5819508 6.25804739,16.7903854 6.03662426,16.7903854 L6.03662426,16.7903854 Z M9.30880036,19.7737218 C8.97295467,20.2239901 8.73761528,20.532931 8.37486483,20.532931 C8.06561466,20.532931 8.0523169,20.3312999 8.0523169,20.1364723 C8.0523169,19.975353 8.54959118,18.3357085 8.54959118,18.0669701 C8.54959118,17.9460533 8.50938866,17.8520413 8.38166833,17.8520413 C8.0591204,17.8520413 7.63575691,18.4300298 7.39392328,18.8060781 C7.08498235,19.2696441 6.99746455,19.558793 6.7222319,20.472318 L6.21846336,20.472318 C6.42658873,19.7131088 6.87685699,18.1408809 6.87685699,17.9995536 C6.87685699,17.898738 6.8097497,17.8248273 6.44699924,17.8248273 L6.44699924,17.7172082 C6.8097497,17.6501009 7.17250015,17.5829936 7.53555986,17.5090828 L7.55566112,17.5223806 L7.12549413,18.9266856 L7.13879188,18.9399834 C7.45453631,18.4427091 8.07272741,17.5087736 8.63030547,17.5087736 C8.93955565,17.5087736 9.09387148,17.6698929 9.09387148,17.9522383 C9.09387148,18.241078 8.55639468,19.9008237 8.55639468,20.1024548 C8.55639468,20.2032703 8.65040673,20.2168773 8.66401374,20.2168773 C8.79853757,20.2168773 8.96646041,20.0019485 9.21509755,19.6858948 L9.30880036,19.7737218 L9.30880036,19.7737218 Z M10.1688251,18.7791733 C10.4174622,18.1810835 10.8742247,17.6640172 11.2372844,17.6640172 C11.4052073,17.6640172 11.4723146,17.7917375 11.4723146,17.9327556 C11.4723146,17.9865651 11.4389156,18.7927803 10.0547118,19.0751257 L10.1688251,18.7791733 L10.1688251,18.7791733 Z M11.5527196,19.7400136 C11.2168739,20.0155555 10.9345285,20.2440914 10.5717781,20.2440914 C10.2894327,20.2440914 9.94028921,20.0894663 9.94028921,19.6323945 C9.94028921,19.4978707 9.97399748,19.3636561 10.0073965,19.222638 L10.1954206,19.1957333 C11.2839812,19.0411082 11.9154701,18.4968279 11.9154701,17.9661546 C11.9154701,17.6705114 11.7070355,17.5090828 11.3643863,17.5090828 C10.417153,17.5090828 9.35549713,18.637846 9.35549713,19.5986863 C9.35549713,20.0220497 9.570426,20.5459195 10.2761349,20.5459195 C10.9481355,20.5459195 11.5595231,19.9277284 11.6334339,19.8201094 L11.5527196,19.7400136 L11.5527196,19.7400136 Z M11.9627854,20.472318 L12.5070657,18.5104349 C12.5741729,18.2617977 12.6143755,18.0335711 12.6143755,17.9729581 C12.6143755,17.878946 12.5809764,17.7716362 12.3725418,17.7716362 C12.298631,17.7716362 12.2247202,17.7917375 12.1508095,17.8050352 L12.1508095,17.6909219 C12.4934587,17.6439159 12.8899174,17.5563981 13.192364,17.5093921 L13.2124653,17.5226898 L12.8834231,18.8598876 L12.8967209,18.8731853 L12.9505304,18.7386615 C13.1722628,18.2951968 13.6831441,17.5090828 14.1061983,17.5090828 C14.2608234,17.5090828 14.4287462,17.6098984 14.4287462,17.838125 C14.4287462,18.1875777 14.1869126,18.1875777 14.1130018,18.1875777 C13.8241622,18.1875777 13.9249777,17.9457441 13.7635491,17.9457441 C13.5554237,17.9457441 13.1521615,18.6916555 13.098352,18.792471 C12.8429113,19.2761383 12.7488993,19.578585 12.4733574,20.472318 L11.9627854,20.472318 L11.9627854,20.472318 Z M14.0857878,19.4913764 C14.1327938,19.7870196 14.2404129,20.4052107 14.7846932,20.4052107 C15.1607414,20.4052107 15.2683605,20.0826628 15.2683605,19.8609304 C15.2683605,19.4174656 14.4689488,18.7723698 14.4689488,18.2549942 C14.4689488,18.0468689 14.5629608,17.5090828 15.275164,17.5090828 C15.5776106,17.5090828 15.7118252,17.6235054 15.9134563,17.6235054 C16.0278789,17.6235054 16.0680814,17.5563981 16.1014804,17.5022793 L16.1954925,17.5022793 L16.0609687,18.4365241 L15.9533496,18.4365241 C15.9199506,18.0533631 15.758522,17.6637079 15.3218607,17.6637079 C15.1740392,17.6637079 14.9591103,17.7240117 14.9591103,18.0533631 C14.9591103,18.4767266 15.7786233,19.0748165 15.7786233,19.6456923 C15.7786233,20.3779967 15.1536286,20.5462288 14.7775804,20.5462288 C14.5759493,20.5462288 14.3072109,20.4185085 14.1123833,20.4185085 C14.0183713,20.4185085 13.9914665,20.4856158 13.951264,20.5598358 L13.8436449,20.5598358 L13.9781687,19.4913764 L14.0857878,19.4913764 L14.0857878,19.4913764 Z M21.7524089,17.3278622 C21.7391111,17.1398381 21.6784981,16.2393016 20.7176578,16.2393016 C19.3739658,16.2393016 18.6883581,17.865339 18.6883581,18.8530841 C18.6883581,19.7335193 19.0579121,20.2910974 19.857633,20.2910974 C20.6168422,20.2910974 21.0872117,19.8139244 21.4097597,19.4981799 L21.523873,19.592192 C21.2752358,19.8878352 20.677146,20.5932348 19.6962045,20.5932348 C18.9165848,20.5932348 17.9359525,20.1228653 17.9359525,18.7791733 C17.9359525,17.4824873 19.1250194,15.997468 20.6638483,15.997468 C21.1475155,15.997468 21.5575813,16.1585873 21.7118971,16.1585873 C21.9067247,16.1585873 21.9469272,16.077873 21.9806355,16.0107657 L22.1216536,16.0107657 L21.8730164,17.3479635 L21.7524089,17.3278622 Z M22.9884818,19.7063053 C22.6458326,20.2236809 22.3835885,20.5462288 21.9670285,20.5462288 C21.6713853,20.5462288 21.6444806,20.3176929 21.6444806,20.1296688 C21.6444806,19.9883415 22.6189279,16.4811352 22.6189279,16.3401172 C22.6189279,16.1657001 22.3365824,16.1657001 22.1618561,16.1721943 L22.1618561,16.0645753 C22.5113088,16.0243727 22.8607615,15.9637597 23.2099049,15.8833547 L23.2436132,15.9167537 L22.2289634,19.8071209 C22.2156656,19.8677339 22.1618561,20.0489545 22.1618561,20.1228653 C22.1618561,20.1630678 22.1618561,20.2573891 22.2626717,20.2573891 C22.4305945,20.2573891 22.5719218,20.069365 22.900964,19.6456923 L22.9884818,19.7063053 L22.9884818,19.7063053 Z M26.0927351,19.7468171 C25.6693716,20.3582047 25.4946452,20.532931 25.1587995,20.532931 C24.8563529,20.532931 24.8430551,20.2842939 24.8430551,20.1834783 C24.8430551,20.0625615 24.9775789,19.4981799 25.1318948,18.9470961 L25.1117935,18.9470961 C24.6547218,19.7063053 24.1577567,20.5462288 23.5528634,20.5462288 C23.3110297,20.5462288 23.1833094,20.4454132 23.1833094,20.1497701 C23.1833094,19.8541269 23.6938815,18.1606729 23.6938815,17.9794523 C23.6938815,17.7846247 23.5661611,17.7846247 23.2909285,17.7846247 L23.2909285,17.6909219 C23.630098,17.649906 23.9666094,17.5892947 24.2987748,17.5093921 L24.3188761,17.5226898 L23.7071792,19.961746 C23.687078,20.0489545 23.7071792,20.1899726 23.8485065,20.1899726 C24.1373462,20.1899726 24.5607097,19.5584837 24.7892456,19.209031 C25.118597,18.7117568 25.2664186,18.2883933 25.5283535,17.5693866 L26.0256278,17.5693866 L25.4949545,19.578585 C25.454752,19.7131088 25.3672342,20.008752 25.3672342,20.1095675 C25.3672342,20.1429666 25.3737284,20.2171866 25.4479485,20.2171866 C25.5756688,20.2171866 25.7636929,19.9818472 25.9990323,19.6862041 L26.0927351,19.7468171 L26.0927351,19.7468171 Z M28.5317912,18.4096193 C28.5317912,18.9740009 27.8934988,20.3919129 26.9728611,20.3919129 C26.6571166,20.3919129 26.6571166,20.2171866 26.6571166,20.1701806 C26.6571166,19.4647809 27.3022125,17.8384343 28.0413204,17.8384343 C28.4646839,17.8384343 28.5317912,18.201494 28.5317912,18.4096193 L28.5317912,18.4096193 Z M26.6639201,16.1520931 C27.0535754,16.1588966 27.1005814,16.1922956 27.1005814,16.3469207 C27.1005814,16.4409327 27.0402776,16.6088556 26.9932716,16.7971889 L26.0794373,20.1633771 L26.0794373,20.1902818 C26.0794373,20.3381034 26.5968128,20.546538 26.953069,20.546538 C27.9810166,20.546538 29.1029763,19.3840666 29.1029763,18.3224108 C29.1029763,17.83194 28.7739341,17.5093921 28.3035646,17.5093921 C27.6989805,17.5093921 27.275617,18.1343867 27.0538846,18.4835301 L27.0405868,18.4770359 C27.2691227,17.7175174 27.5780637,16.4678375 27.7258852,15.9170629 L27.6924862,15.8836639 C27.3430335,15.9507712 27.0003843,15.9977772 26.6645386,16.038289 L26.6645386,16.1520931 L26.6639201,16.1520931 Z M0.0254193747,25.6006136 C0.35477081,25.5400006 0.455586367,25.5198993 0.569699681,25.1033394 L1.39601615,22.1333007 C1.43621867,21.9987769 1.46992694,21.8376575 1.46992694,21.7167407 C1.46992694,21.4817106 1.28870634,21.4616093 0.999557424,21.427901 L0.999557424,21.320282 L2.65930311,21.320282 L2.65930311,21.427901 C2.33026092,21.4885141 2.22264186,21.5018118 2.1082193,21.9251753 L1.28190283,24.9017082 C1.24170031,25.0362321 1.20799204,25.1704466 1.20799204,25.3318752 C1.20799204,25.5468041 1.37591489,25.5672146 1.6650638,25.6006136 L1.6650638,25.7082327 L0.0254193747,25.7082327 L0.0254193747,25.6006136 L0.0254193747,25.6006136 Z" id="Shape" fill="#000000"></path>
                <path d="M4.89672812,25.0093273 C4.56057318,25.4595956 4.32554305,25.7688457 3.96248334,25.7688457 C3.65354242,25.7688457 3.63993541,25.5672146 3.63993541,25.372387 C3.63993541,25.2112677 4.13720969,23.5716232 4.13720969,23.3028848 C4.13720969,23.181968 4.09700717,23.087956 3.96928685,23.087956 C3.64673892,23.087956 3.22337543,23.6659445 2.98154179,24.0419928 C2.67229162,24.5055588 2.58508307,24.7943984 2.30954116,25.7082327 L1.80577263,25.7082327 C2.013898,24.9490235 2.46416625,23.3764864 2.46416625,23.2354683 C2.46416625,23.1346527 2.39705896,23.060742 2.03430851,23.060742 L2.03430851,22.9531229 C2.39705896,22.8860156 2.75980942,22.8185991 3.12286912,22.7446883 L3.14297038,22.7582953 L2.71311264,24.1626003 L2.7264104,24.1762073 C3.04215482,23.6789331 3.66034592,22.7449975 4.21792399,22.7449975 C4.52717416,22.7449975 4.68179925,22.9064261 4.68179925,23.1887715 C4.68179925,23.4776112 4.14432245,25.1373569 4.14432245,25.338988 C4.14432245,25.4398035 4.2383345,25.4531013 4.25194151,25.4531013 C4.38646533,25.4531013 4.55438818,25.2381724 4.80271607,24.922428 L4.89672812,25.0093273 L4.89672812,25.0093273 Z M6.69068838,23.0471349 L6.12630681,23.0471349 L5.53502048,25.28456 C5.52821698,25.3046612 5.52821698,25.317959 5.52821698,25.3383695 C5.52821698,25.3986733 5.56161599,25.4524828 5.63583604,25.4524828 C5.77035986,25.4524828 6.00538999,25.1367384 6.17331284,24.9218095 L6.26052139,24.9688155 C5.9178722,25.4861911 5.6559373,25.7818342 5.3064846,25.7818342 C5.17196077,25.7818342 4.98393667,25.7147269 4.98393667,25.5130958 C4.98393667,25.4122803 5.11165699,25.0025238 5.13856176,24.8949047 L5.62222903,23.0471349 L5.12495475,23.0471349 C5.11846049,23.0069324 5.11846049,22.9732242 5.13856176,22.9395159 C5.17876428,22.8789028 5.36678838,22.8318968 5.48121095,22.771593 C5.70294332,22.6571705 6.02549126,22.3550331 6.21351536,22.1196937 C6.24042013,22.0862947 6.26732489,22.0256816 6.32762868,22.0392886 C6.3746347,22.0256816 6.38824171,22.0862947 6.3746347,22.1401042 L6.1866106,22.8322061 L6.7240874,22.8322061 L6.69068838,23.0471349 L6.69068838,23.0471349 Z M7.28846897,24.0147787 C7.53710611,23.4166889 7.99417787,22.8993134 8.35692832,22.8993134 C8.52485116,22.8993134 8.5922677,23.0270337 8.5922677,23.1680518 C8.5922677,23.2218613 8.55855943,24.0280765 7.1746649,24.3104219 L7.28846897,24.0147787 L7.28846897,24.0147787 Z M8.67267275,24.975619 C8.33682706,25.2511609 8.05448165,25.4793876 7.69173119,25.4793876 C7.40938579,25.4793876 7.06024234,25.3247625 7.06024234,24.868 C7.06024234,24.7334761 7.09364136,24.5992616 7.12734963,24.4582435 L7.31537373,24.4313387 C8.40393435,24.2767136 9.0354232,23.7324333 9.0354232,23.2014508 C9.0354232,22.9058076 8.82698858,22.744379 8.48433939,22.744379 C7.53710611,22.744379 6.47514101,23.8731422 6.47514101,24.8339825 C6.47514101,25.2573459 6.69006988,25.7812157 7.39577878,25.7812157 C8.06777941,25.7812157 8.679167,25.1630246 8.75307779,25.0557148 L8.67267275,24.975619 Z M9.21695305,25.7079234 L9.76123336,23.7460403 C9.82834065,23.4974032 9.86885242,23.2688673 9.86885242,23.2085635 C9.86885242,23.1145515 9.83514415,23.0069324 9.62701879,23.0069324 C9.55310799,23.0069324 9.4791972,23.0270337 9.40528641,23.0406407 L9.40528641,22.9262181 C9.7479356,22.8792121 10.1443943,22.7916943 10.446841,22.7446883 L10.4669423,22.7582953 L10.1379001,24.095493 L10.1511978,24.1087908 L10.2050074,23.974267 C10.4267397,23.5308022 10.9373118,22.744379 11.3606753,22.744379 C11.5153003,22.744379 11.6832232,22.8451946 11.6832232,23.0737305 C11.6832232,23.4231832 11.4413896,23.4231832 11.3674788,23.4231832 C11.0786391,23.4231832 11.1794547,23.1813495 11.0183353,23.1813495 C10.8099007,23.1813495 10.4066385,23.9272609 10.3531382,24.0280765 C10.0976976,24.5117438 10.0036855,24.8141904 9.72814359,25.7079234 L9.21695305,25.7079234 L9.21695305,25.7079234 Z" id="Shape" fill="#000000"></path>
                <path d="M14.3771015,25.0093273 C14.0412558,25.4595956 13.8059164,25.7688457 13.4431659,25.7688457 C13.1339158,25.7688457 13.120618,25.5672146 13.120618,25.372387 C13.120618,25.2112677 13.6178923,23.5716232 13.6178923,23.3028848 C13.6178923,23.181968 13.5776898,23.087956 13.4499694,23.087956 C13.1277308,23.087956 12.704058,23.6659445 12.4622244,24.0419928 C12.1532835,24.5055588 12.0657657,24.7943984 11.7902238,25.7082327 L11.2864552,25.7082327 C11.4948898,24.9490235 11.9448488,23.3764864 11.9448488,23.2354683 C11.9448488,23.1346527 11.8777416,23.060742 11.5146818,23.060742 L11.5146818,22.9531229 C11.8774323,22.8860156 12.240492,22.8185991 12.6032425,22.7446883 L12.6233437,22.7582953 L12.1931767,24.1626003 L12.2064745,24.1762073 C12.5222189,23.6789331 13.14041,22.7449975 13.6982973,22.7449975 C14.0075475,22.7449975 14.1618633,22.9064261 14.1618633,23.1887715 C14.1618633,23.4776112 13.6243865,25.1373569 13.6243865,25.338988 C13.6243865,25.4398035 13.7183986,25.4531013 13.7320056,25.4531013 C13.8665294,25.4531013 14.0344523,25.2381724 14.2830894,24.922428 L14.3771015,25.0093273 L14.3771015,25.0093273 Z" id="Path" fill="#000000"></path>
                <path d="M14.894477,24.975619 C14.894477,24.3707257 15.4993703,22.8928191 16.2854843,22.8928191 C16.4803119,22.8928191 16.6686453,23.0205394 16.6686453,23.3430874 C16.6686453,24.001481 16.0102516,25.4527921 15.2977392,25.4527921 C15.1162094,25.4527921 14.894477,25.3318752 14.894477,24.975619 Z M17.3335331,24.9688155 C17.0310865,25.2644587 16.8965626,25.4326908 16.7960563,25.4326908 C16.7422468,25.4326908 16.7020443,25.3924883 16.7020443,25.345173 C16.7020443,25.1370476 17.3202354,22.8455038 17.3403366,22.7650988 L17.2933306,22.7449975 L16.8835741,22.7920036 L16.8634729,22.8121048 L16.7963656,23.1080572 L16.7830678,23.1080572 C16.7629666,22.9197239 16.5412342,22.7449975 16.2523945,22.7449975 C15.3586615,22.7449975 14.3307139,24.001481 14.3307139,24.989226 C14.3307139,25.1840536 14.3508152,25.7818342 15.0228158,25.7818342 C15.4260781,25.7818342 15.782025,25.5802031 16.3396031,24.7606902 L16.3529008,24.7739879 C16.2452818,25.1837444 16.2118827,25.331566 16.2118827,25.4861911 C16.2118827,25.6003044 16.2118827,25.7750307 16.4942282,25.7750307 C16.7830678,25.7750307 17.0116037,25.5331971 17.4148659,25.0359228 L17.3335331,24.9688155 L17.3335331,24.9688155 Z M19.3291245,23.0471349 L18.7647429,23.0471349 L18.1734566,25.28456 C18.1666531,25.3046612 18.1666531,25.317959 18.1666531,25.3383695 C18.1666531,25.3986733 18.2003614,25.4524828 18.2742722,25.4524828 C18.408796,25.4524828 18.6438261,25.1367384 18.811749,24.9218095 L18.8989575,24.9688155 C18.5563083,25.4861911 18.2943734,25.7818342 17.9449207,25.7818342 C17.8103969,25.7818342 17.6223728,25.7147269 17.6223728,25.5130958 C17.6223728,25.4122803 17.7500931,25.0025238 17.7769979,24.8949047 L18.2606652,23.0471349 L17.7633909,23.0471349 C17.7568966,23.0069324 17.7568966,22.9732242 17.7769979,22.9395159 C17.8172004,22.8789028 18.0052245,22.8318968 18.1196471,22.771593 C18.3413794,22.6571705 18.6639274,22.3550331 18.8519515,22.1196937 C18.8788562,22.0862947 18.905761,22.0256816 18.966374,22.0392886 C19.0133801,22.0256816 19.0266778,22.0862947 19.0133801,22.1401042 L18.825356,22.8322061 L19.3628328,22.8322061 L19.3291245,23.0471349 Z M20.6193162,25.0161308 C20.3570721,25.4125895 20.0617382,25.7821435 19.6853807,25.7821435 C19.3696363,25.7821435 19.3696363,25.4865003 19.3696363,25.3655835 C19.3696363,25.0498391 19.9003096,23.3835991 19.9003096,23.1952658 C19.9003096,23.0539384 19.8465,23.0205394 19.4769461,23.0205394 L19.4769461,22.9129204 C19.7320775,22.8996226 20.2896555,22.7920036 20.5518997,22.7449975 L20.572001,22.7586045 L19.9807146,24.9221188 C19.9538099,25.0161308 19.8730956,25.2848692 19.8730956,25.3655835 C19.8730956,25.4125895 19.9201016,25.4663991 19.9807146,25.4663991 C20.0614289,25.4663991 20.2562565,25.3318752 20.5314892,24.94222 L20.6193162,25.0161308 Z M20.4847924,22.0259909 C20.3168696,22.0259909 20.1622445,21.9118776 20.1622445,21.6765382 C20.1622445,21.441508 20.3168696,21.3137877 20.4779889,21.3137877 C20.6997213,21.3137877 20.8138353,21.5355201 20.8138353,21.6833417 C20.8141438,21.8175563 20.7065248,22.0259909 20.4847924,22.0259909 Z M22.8165387,22.8860156 C23.1387774,22.8860156 23.2869082,23.1816588 23.2869082,23.5311115 C23.2869082,24.2501181 22.7562349,25.6408162 21.9902223,25.6408162 C21.6543766,25.6408162 21.4527453,25.3989825 21.4527453,25.0158216 C21.4524362,24.2232134 22.0638238,22.8860156 22.8165387,22.8860156 L22.8165387,22.8860156 Z M22.8635447,22.7446883 C21.8826032,22.7446883 20.8880546,23.8267546 20.8880546,24.8141904 C20.8880546,25.3717685 21.1905013,25.781525 21.9027045,25.781525 C22.930652,25.781525 23.8512898,24.5655533 23.8512898,23.7389276 C23.8509806,23.2957721 23.6428552,22.7446883 22.8635447,22.7446883 L22.8635447,22.7446883 Z" id="Shape" fill="#000000"></path>
                <path d="M26.7808167,25.0093273 C26.444971,25.4595956 26.2096316,25.7688457 25.8468812,25.7688457 C25.537631,25.7688457 25.5243332,25.5672146 25.5243332,25.372387 C25.5243332,25.2112677 26.0216075,23.5716232 26.0216075,23.3028848 C26.0216075,23.181968 25.981405,23.087956 25.8536847,23.087956 C25.5311367,23.087956 25.1077733,23.6659445 24.8659396,24.0419928 C24.5566894,24.5055588 24.4694809,24.7943984 24.193939,25.7082327 L23.6901705,25.7082327 C23.8986051,24.9490235 24.3485641,23.3764864 24.3485641,23.2354683 C24.3485641,23.1346527 24.2814568,23.060742 23.9183971,23.060742 L23.9183971,22.9531229 C24.2811475,22.8860156 24.6442072,22.8185991 25.0069577,22.7446883 L25.027059,22.7582953 L24.596892,24.1626003 L24.6101897,24.1762073 C24.9259342,23.6789331 25.5441253,22.7449975 26.1020126,22.7449975 C26.4112627,22.7449975 26.5655786,22.9064261 26.5655786,23.1887715 C26.5655786,23.4776112 26.0281018,25.1373569 26.0281018,25.338988 C26.0281018,25.4398035 26.1221138,25.4531013 26.1357208,25.4531013 C26.2702447,25.4531013 26.4381675,25.2381724 26.6868046,24.922428 L26.7808167,25.0093273 L26.7808167,25.0093273 Z M27.4324068,24.975619 C27.4324068,24.3707257 28.0373002,22.8928191 28.8234141,22.8928191 C29.0182417,22.8928191 29.2062658,23.0205394 29.2062658,23.3430874 C29.2062658,24.001481 28.5478722,25.4527921 27.835669,25.4527921 C27.6541392,25.4527921 27.4324068,25.3318752 27.4324068,24.975619 Z M29.8714629,24.9688155 C29.5690163,25.2644587 29.4344924,25.4326908 29.3339861,25.4326908 C29.2801766,25.4326908 29.2399741,25.3924883 29.2399741,25.345173 C29.2399741,25.1370476 29.8581652,22.8455038 29.8782664,22.7650988 L29.8312604,22.7449975 L29.4211947,22.7920036 L29.4010934,22.8121048 L29.3339861,23.1080572 L29.3206884,23.1080572 C29.3005871,22.9197239 29.0788547,22.7449975 28.7900151,22.7449975 C27.8962821,22.7449975 26.8683345,24.001481 26.8683345,24.989226 C26.8683345,25.1840536 26.8884358,25.7818342 27.5604364,25.7818342 C27.9633894,25.7818342 28.3196456,25.5802031 28.8772236,24.7606902 L28.8905214,24.7739879 C28.7829023,25.1837444 28.7495033,25.331566 28.7495033,25.4861911 C28.7495033,25.6003044 28.7495033,25.7750307 29.0315395,25.7750307 C29.3206884,25.7750307 29.548915,25.5331971 29.9521772,25.0359228 L29.8714629,24.9688155 L29.8714629,24.9688155 Z M31.3966848,24.9419108 C31.0540356,25.4592863 30.7921007,25.7818342 30.3755407,25.7818342 C30.0798976,25.7818342 30.0529928,25.5536076 30.0529928,25.3652743 C30.0529928,25.2242562 31.0271308,21.7167407 31.0271308,21.5757226 C31.0271308,21.4009963 30.7447854,21.4009963 30.5700591,21.4077998 L30.5700591,21.3001807 C30.9226405,21.2593856 31.2726467,21.1987799 31.6184172,21.1186509 L31.6518162,21.1523591 L30.6371664,25.0427263 C30.6238686,25.1030301 30.5700591,25.28456 30.5700591,25.3584707 C30.5700591,25.3986733 30.5700591,25.4929946 30.6708746,25.4929946 C30.8387975,25.4929946 30.9798156,25.3049705 31.309167,24.881607 L31.3966848,24.9419108 L31.3966848,24.9419108 Z M32.3389701,21.2701834 L32.4079329,21.2701834 C32.4719477,21.2701834 32.5239017,21.3020362 32.5239017,21.3979038 C32.5239017,21.4869678 32.4920489,21.5506734 32.4094791,21.5506734 L32.3389701,21.5506734 L32.3389701,21.2701834 Z M32.150946,21.2633799 C32.2332065,21.2717297 32.2316603,21.2701834 32.2316603,21.3440942 L32.2316603,21.745501 C32.2316603,21.8175563 32.2332065,21.8175563 32.150946,21.8262153 L32.150946,21.8512645 L32.4196844,21.8512645 L32.4196844,21.8262153 C32.3358776,21.8178655 32.3389701,21.8178655 32.3389701,21.745501 L32.3389701,21.5809799 L32.4178289,21.5809799 C32.5235924,21.7371512 32.5656505,21.8512645 32.61946,21.8512645 L32.7252236,21.8512645 L32.7252236,21.8361113 C32.6930615,21.8126082 32.642963,21.7557062 32.5993587,21.6950932 L32.5034912,21.5639711 C32.5792575,21.5389218 32.6361595,21.4749071 32.6361595,21.389554 C32.6361595,21.2853367 32.5436937,21.2383307 32.4447336,21.2383307 L32.1506367,21.2383307 L32.1506367,21.2633799 L32.150946,21.2633799 Z M32.9874677,21.5540751 C32.9874677,21.2364752 32.7406861,20.9779399 32.4212306,20.9779399 C32.2686139,20.9775231 32.1221767,21.038198 32.01458,21.1464338 C31.9069832,21.2546696 31.8471767,21.4014635 31.8484993,21.5540751 C31.8484993,21.8713658 32.0989919,22.1268064 32.4212306,22.1268064 C32.7406861,22.1268064 32.9874677,21.8713658 32.9874677,21.5540751 L32.9874677,21.5540751 Z M32.8950019,21.5540751 C32.8950019,21.820958 32.685021,22.0562974 32.4212306,22.0562974 C32.1524922,22.0562974 31.9409651,21.820958 31.9409651,21.5540751 C31.9409651,21.286883 32.150946,21.0484511 32.4212306,21.0484511 C32.6868765,21.0484511 32.8950019,21.2853367 32.8950019,21.5540751 Z" id="Shape" fill="#000000"></path>
                <g id="Group" transform="translate(0.381503, 0.000000)">
                    <path d="M14.809119,14.0598901 C18.6527894,14.0786701 21.8046672,10.9264831 21.7779334,7.09116241 C21.8043579,3.15100594 18.6527894,-0.000871838091 14.809119,0.000364798621 L7.10724342,0.000364798621 C3.21749473,-0.000562587917 0.0656169494,3.15100594 0.0161369215,7.09116241 C0.0656169494,10.9264831 3.21749473,14.0783608 7.10693417,14.0598901 L14.809119,14.0598901 L14.809119,14.0598901 Z" id="Path" fill="#2D4F9E"></path>
                    <path d="M0.505370697,7.09116241 C0.543717719,3.41510559 3.48128512,0.477228931 7.10724342,0.489560018 C10.7291815,0.477228931 13.6670581,3.41510559 13.7088069,7.09147166 C13.6670581,10.6630019 10.7291815,13.6008786 7.10724342,13.5708813 C3.48128512,13.6008786 0.543717719,10.6626927 0.505370697,7.09116241 Z" id="Path" fill="#FFFFFF"></path>
                    <path d="M5.63985134,3.1791477 C4.12050523,3.86475534 2.98060909,5.33060117 2.95030257,7.09116241 C2.98060909,8.78554411 4.0660772,10.2779855 5.63985134,10.8810233 L5.63985134,3.1791477 Z M8.57401699,10.8813325 C10.1440801,10.2782947 11.229239,8.78554411 11.2635658,7.09147166 C11.229239,5.29287264 10.1437709,3.80012205 8.57401699,3.17945695 L8.57401699,10.8813325 Z" id="Shape" fill="#2D4F9E"></path>
                </g>
            </g>
        </g>
    </g>
</svg>