<?xml version="1.0" encoding="UTF-8"?>
<svg width="56px" height="30px" viewBox="0 0 56 30" version="1.1" xmlns="http://www.w3.org/2000/svg" xmlns:xlink="http://www.w3.org/1999/xlink">
    <title>Discover Card</title>
    <g id="Page-1" stroke="none" stroke-width="1" fill="none" fill-rule="evenodd">
        <g id="Discover-Card">
            <rect id="Rectangle-Copy-10" fill="#FFFFFF" x="0" y="0" width="56" height="30"></rect>
            <g id="discover-4" transform="translate(0.000000, 9.000000)" fill-rule="nonzero">
                <path d="M2.39857603,0.205524628 L0.00685468002,0.205524628 L0.00685468002,8.52996912 L2.36752254,8.52996912 C3.64131842,8.52996912 4.5418695,8.25018626 5.3495616,7.56700959 C6.28146765,6.79067245 6.87148387,5.61003703 6.87148387,4.36759613 C6.87148387,1.9140693 5.03872526,0.205524628 2.39857603,0.205524628 L2.39857603,0.205524628 Z M4.29344161,6.47983611 C3.76553236,6.9148864 3.11280619,7.13226079 2.05698769,7.13226079 L1.6222389,7.13226079 L1.6222389,1.63428644 L2.05698769,1.63428644 C3.11280619,1.63428644 3.73417739,1.82060735 4.29344161,2.28640963 C4.85240435,2.7832654 5.19429418,3.56020551 5.19429418,4.36759613 C5.19399269,5.17528824 4.85240435,5.98298035 4.29344161,6.47983611 Z M7.61706901,8.53027061 L9.23215174,8.53027061 L9.23215174,0.205524628 L7.61706901,0.205524628 L7.61706901,8.53027061 Z M13.2079023,3.40493809 C12.2138893,3.03229626 11.9344079,2.81492186 11.9344079,2.34881809 C11.9344079,1.82090884 12.4623172,1.44826702 13.1457954,1.44826702 C13.6426511,1.44826702 14.0466479,1.63458793 14.4503432,2.10039021 L15.3201423,1.01351823 C14.6056107,0.39214703 13.7671666,0.0816121773 12.866314,0.0816121773 C11.3754452,0.0816121773 10.2572182,1.10667868 10.2572182,2.47333353 C10.2572182,3.62261397 10.7851275,4.1818782 12.3073513,4.74084093 C12.9597759,4.95821533 13.2703108,5.11348276 13.4255782,5.20664321 C13.7671666,5.4243191 13.922434,5.73455246 13.922434,6.07644229 C13.922434,6.75992046 13.3945247,7.25677622 12.6489396,7.25677622 C11.9033545,7.25677622 11.2512313,6.85308092 10.8782879,6.13854926 L9.85352293,7.16361577 C10.5991081,8.25048775 11.4996591,8.74764501 12.7421,8.74764501 C14.4192897,8.74764501 15.5999252,7.62941805 15.5999252,6.01433532 C15.5996237,4.67843247 15.0406609,4.08811476 13.2079023,3.40493809 L13.2079023,3.40493809 Z M16.0967809,4.36759613 C16.0967809,6.82142445 18.0227,8.71629003 20.5072803,8.71629003 C21.1907585,8.71629003 21.8118282,8.5917746 22.5263598,8.25018626 L22.5263598,6.32426719 C21.8739352,6.97639039 21.3149724,7.25617324 20.5693873,7.25617324 C18.9543046,7.25617324 17.7739706,6.04478583 17.7739706,4.36729464 C17.7739706,2.7832654 18.985358,1.50977101 20.5072803,1.50977101 C21.2839189,1.50977101 21.8739352,1.78925238 22.5263598,2.44167706 L22.5263598,0.546811477 C21.8428817,0.173868163 21.2528655,0.0189022264 20.5383338,0.0189022264 C18.0845055,0.0192037165 16.0967809,1.97617627 16.0967809,4.36759613 L16.0967809,4.36759613 Z" id="Shape" fill="#000000"></path>
                <path d="M27.5895854,0.0192037165 C25.1354556,0.0192037165 23.1474295,1.94512279 23.1474295,4.30548916 C23.1474295,6.85277943 25.0422951,8.71629003 27.5895854,8.71629003 C30.0738642,8.71629003 32.0311383,6.82142445 32.0311383,4.36759613 C32.0314398,1.94512279 30.1052192,0.0192037165 27.5895854,0.0192037165 Z" id="Path" fill="#DB8135"></path>
                <path d="M27.5895854,0.0192037165 C25.1354556,0.0192037165 23.1474295,1.94512279 23.1474295,4.30548916 C23.1474295,6.85277943 25.0422951,8.71629003 27.5895854,8.71629003 C30.0738642,8.71629003 32.0311383,6.82142445 32.0311383,4.36759613 C32.0314398,1.94512279 30.1052192,0.0192037165 27.5895854,0.0192037165 Z M27.5895854,4.36759613 L32.0311383,4.36759613 L27.5895854,4.36759613 Z" id="Shape" fill="#DB8135"></path>
                <path d="M27.5895854,4.36759613 L32.0311383,4.36759613 C32.0311383,1.9448213 30.1049177,0.0192037165 27.5895854,0.0192037165 C25.1354556,0.0192037165 23.1474295,1.94512279 23.1474295,4.30548916 C23.1474295,6.85277943 25.0422951,8.71629003 27.5895854,8.71629003 C30.0738642,8.71629003 32.0311383,6.82142445 32.0311383,4.36759613 L27.5895854,4.36759613 Z" id="Path" fill="#DB8135"></path>
                <path d="M27.5895854,4.36759613 L32.0311383,4.36759613 C32.0311383,1.9448213 30.1049177,0.0192037165 27.5895854,0.0192037165 C25.1354556,0.0192037165 23.1474295,1.94512279 23.1474295,4.30548916 C23.1474295,6.85277943 25.0422951,8.71629003 27.5895854,8.71629003 C30.0738642,8.71629003 32.0311383,6.82142445 32.0311383,4.36759613 L27.5895854,4.36759613 Z" id="Path" fill="#DB8137"></path>
                <path d="M27.5895854,4.36759613 L32.0311383,4.36759613 C32.0311383,1.9448213 30.1049177,0.0192037165 27.5895854,0.0192037165 C25.1354556,0.0192037165 23.1474295,1.94512279 23.1474295,4.30548916 C23.1474295,6.85277943 25.0422951,8.71629003 27.5895854,8.71629003 C30.0738642,8.71629003 32.0311383,6.82142445 32.0311383,4.36759613 L27.5895854,4.36759613 Z" id="Path" fill="#DC8337"></path>
                <path d="M27.5895854,4.36759613 L32.0311383,4.36759613 C32.0311383,1.9448213 30.1049177,0.0192037165 27.5895854,0.0192037165 C25.1354556,0.0192037165 23.1474295,1.94512279 23.1474295,4.30548916 C23.1474295,6.85277943 25.0422951,8.71629003 27.5895854,8.71629003 C30.0738642,8.71629003 32.0311383,6.82142445 32.0311383,4.36759613 L27.5895854,4.36759613 Z" id="Path" fill="#DC8539"></path>
                <path d="M27.5895854,4.36759613 L32.0311383,4.36759613 C32.0311383,1.9448213 30.1049177,0.0192037165 27.5895854,0.0192037165 C25.1354556,0.0192037165 23.1474295,1.94512279 23.1474295,4.30548916 C23.1474295,6.85277943 25.0422951,8.71629003 27.5895854,8.71629003 C30.0738642,8.71629003 32.0311383,6.82142445 32.0311383,4.36759613 L27.5895854,4.36759613 Z" id="Path" fill="#DC853A"></path>
                <path d="M27.5895854,4.36759613 L32.0311383,4.36759613 C32.0311383,1.9448213 30.1049177,0.0192037165 27.5895854,0.0192037165 C25.1354556,0.0192037165 23.1474295,1.94512279 23.1474295,4.30548916 C23.1474295,6.85277943 25.0422951,8.71629003 27.5895854,8.71629003 C30.0738642,8.71629003 32.0311383,6.82142445 32.0311383,4.36759613 L27.5895854,4.36759613 Z" id="Path" fill="#DC853C"></path>
                <path d="M27.5895854,4.36759613 L32.0311383,4.36759613 C32.0311383,1.9448213 30.1049177,0.0192037165 27.5895854,0.0192037165 C25.1354556,0.0192037165 23.1474295,1.94512279 23.1474295,4.30548916 C23.1474295,6.85277943 25.0422951,8.71629003 27.5895854,8.71629003 C30.0738642,8.71629003 32.0311383,6.82142445 32.0311383,4.36759613 L27.5895854,4.36759613 Z" id="Path" fill="#DD873E"></path>
                <path d="M27.5895854,4.36759613 L32.0311383,4.36759613 C32.0311383,1.9448213 30.1049177,0.0192037165 27.5895854,0.0192037165 C25.1354556,0.0192037165 23.1474295,1.94512279 23.1474295,4.30548916 C23.1474295,6.85277943 25.0422951,8.71629003 27.5895854,8.71629003 C30.0738642,8.71629003 32.0311383,6.82142445 32.0311383,4.36759613 L27.5895854,4.36759613 Z" id="Path" fill="#DD873E"></path>
                <path d="M27.5895854,4.36759613 L32.0311383,4.36759613 C32.0311383,1.9448213 30.1049177,0.0192037165 27.5895854,0.0192037165 C25.1354556,0.0192037165 23.1474295,1.94512279 23.1474295,4.30548916 C23.1474295,6.85277943 25.0422951,8.71629003 27.5895854,8.71629003 C30.0738642,8.71629003 32.0311383,6.82142445 32.0311383,4.36759613 L27.5895854,4.36759613 Z" id="Path" fill="#DD883F"></path>
                <path d="M27.5895854,4.36759613 L32.0311383,4.36759613 C32.0311383,1.9448213 30.1049177,0.0192037165 27.5895854,0.0192037165 C25.1354556,0.0192037165 23.1474295,1.94512279 23.1474295,4.30548916 C23.1474295,6.85277943 25.0422951,8.71629003 27.5895854,8.71629003 C30.0738642,8.71629003 32.0311383,6.82142445 32.0311383,4.36759613 L27.5895854,4.36759613 Z" id="Path" fill="#DD8841"></path>
                <path d="M27.5895854,4.36759613 L32.0311383,4.36759613 C32.0311383,1.9448213 30.1049177,0.0192037165 27.5895854,0.0192037165 C25.1354556,0.0192037165 23.1474295,1.94512279 23.1474295,4.30548916 C23.1474295,6.85277943 25.0422951,8.71629003 27.5895854,8.71629003 C30.0738642,8.71629003 32.0311383,6.82142445 32.0311383,4.36759613 L27.5895854,4.36759613 Z" id="Path" fill="#DE8A41"></path>
                <path d="M27.5895854,4.36759613 L32.0311383,4.36759613 C32.0311383,1.9448213 30.1049177,0.0192037165 27.5895854,0.0192037165 C25.1354556,0.0192037165 23.1474295,1.94512279 23.1474295,4.30548916 C23.1474295,6.85277943 25.0422951,8.71629003 27.5895854,8.71629003 C30.0738642,8.71629003 32.0311383,6.82142445 32.0311383,4.36759613 L27.5895854,4.36759613 Z" id="Path" fill="#DE8A43"></path>
                <path d="M27.5895854,4.36759613 L32.0311383,4.36759613 C32.0311383,1.9448213 30.1049177,0.0192037165 27.5895854,0.0192037165 C25.1354556,0.0192037165 23.1474295,1.94512279 23.1474295,4.30548916 C23.1474295,6.85277943 25.0422951,8.71629003 27.5895854,8.71629003 C30.0738642,8.71629003 32.0311383,6.82142445 32.0311383,4.36759613 L27.5895854,4.36759613 Z" id="Path" fill="#DE8A44"></path>
                <path d="M27.5895854,4.36759613 L32.0311383,4.36759613 C32.0311383,1.9448213 30.1049177,0.0192037165 27.5895854,0.0192037165 C25.1354556,0.0192037165 23.1474295,1.94512279 23.1474295,4.30548916 C23.1474295,6.85277943 25.0422951,8.71629003 27.5895854,8.71629003 C30.0738642,8.71629003 32.0311383,6.82142445 32.0311383,4.36759613 L27.5895854,4.36759613 Z" id="Path" fill="#DE8C46"></path>
                <path d="M27.5895854,4.36759613 L32.0311383,4.36759613 L27.5895854,4.36759613 Z M32.0314398,4.36759613 C32.0314398,4.32990986 32.0308368,4.29222359 32.0296308,4.25453732 L32.0296308,4.25302987 C32.0288318,4.21602646 32.0274247,4.17903867 32.02541,4.1420815 L32.02541,4.1390666 C32.0235682,4.1028593 32.0212566,4.06667744 32.0184757,4.03053014 C32.0184757,4.02902269 32.0184757,4.02751524 32.0178727,4.02600779 C32.0154199,3.99049604 32.0125053,3.9550177 32.0091295,3.91958177 C32.0085265,3.91747134 32.0085265,3.9156624 32.0085265,3.91355197 C32.0049834,3.87881443 32.0008624,3.84413827 31.9961654,3.80953786 L31.9961654,3.80863339 C31.9919391,3.77563054 31.9874165,3.74266629 31.9825984,3.70974463 C31.9819954,3.70642823 31.9813924,3.70311184 31.9813924,3.69979545 C31.9759656,3.66723451 31.9708402,3.63497507 31.9648104,3.60241413 L31.9630015,3.59156049 L31.9536553,3.53879971 L31.9412942,3.47639125 L31.9349629,3.44654373 C31.9295361,3.42121855 31.9244108,3.39589338 31.918381,3.3708697 C31.915969,3.35911158 31.9123511,3.34765496 31.9102407,3.33589684 L31.8924528,3.26534815 L31.8746649,3.19902031 L31.8659217,3.16645938 C31.8595904,3.14324464 31.8523546,3.12033139 31.8460233,3.09741813 L31.8354712,3.06154081 C31.2855531,1.28787426 29.6318797,0.0189022264 27.5898869,0.0189022264 C25.7924026,0.0189022264 24.2454567,1.05241046 23.5459995,2.53272709 C23.2869336,3.09908228 23.1512772,3.71405779 23.1480325,4.33684413 C23.1513489,4.87500405 23.2396855,5.38241197 23.4003798,5.84761127 L23.4142483,5.8865035 L23.4202781,5.90278397 C23.5916933,6.3677214 23.8398421,6.80063147 24.1544066,7.18351412 C24.9533555,8.13682597 26.1701698,8.71598854 27.5898869,8.71598854 C29.6083634,8.71598854 31.2783174,7.46540741 31.8342652,5.67998275 L31.8626053,5.58410888 L31.8626053,5.58380739 C31.9436632,5.29842679 31.9957823,5.00561015 32.0181742,4.70978745 L32.0187772,4.70918447 C32.0211891,4.67179969 32.024204,4.63411342 32.0257114,4.59642715 L32.0257114,4.59612566 C32.0294265,4.52000512 32.0313365,4.4438072 32.0314398,4.36759613 L32.0314398,4.36759613 Z" id="Shape" fill="#DF8E47"></path>
                <path d="M27.5895854,4.36759613 L32.0000848,4.36759613 C32.0000848,2.67804534 31.0326029,1.21551663 29.6258499,0.484704506 C29.0204576,0.186832239 28.3309497,0.0192037165 27.5895854,0.0192037165 C26.6353691,0.0192037165 25.7529074,0.31074469 25.0290296,0.804585554 C23.9114056,1.59840911 23.178483,2.89692719 23.178483,4.36759613 C23.178483,5.98539227 24.065467,7.40933024 25.3757432,8.17692416 C26.0188217,8.52333634 26.7698337,8.71629003 27.5895854,8.71629003 C28.6230936,8.71629003 29.5646474,8.38826875 30.3123429,7.82930602 C31.3374094,7.0189005 32.0000848,5.76560595 32.0000848,4.36759613 L27.5895854,4.36759613 Z" id="Path" fill="#DF8E48"></path>
                <path d="M27.5895854,4.36759613 L31.9376763,4.36759613 C31.9376763,1.97587478 29.9810053,0.0192037165 27.5895854,0.0192037165 C27.5518991,0.0192037165 27.5148158,0.0198066968 27.4777326,0.0207111672 L27.4747177,0.0207111672 C25.1357571,0.0819136674 23.2405868,2.01446552 23.2405868,4.36759613 C23.23835,6.23405254 24.4185004,7.89712924 26.1810234,8.51127673 C26.6193901,8.64483687 27.0918252,8.71659152 27.5892839,8.71659152 C28.1964851,8.71659152 28.7717283,8.60292974 29.2951152,8.39640899 C30.9009115,7.70122431 31.9395195,6.11771446 31.9373748,4.36789762 L27.5895854,4.36789762 L27.5895854,4.36759613 Z" id="Path" fill="#DF8E4A"></path>
                <path d="M27.5895854,4.36759613 L31.9069345,4.36759613 C31.9069345,2.00692827 29.9807038,0.0499557117 27.5895854,0.0499557117 C25.1975626,0.0499557117 23.2716333,2.00692827 23.2716333,4.36759613 C23.2691547,5.513519 23.7232898,6.61322012 24.5336099,7.42348357 C25.3439299,8.23374702 26.4436627,8.68780535 27.5895854,8.68524739 C28.7354037,8.68764475 29.8349813,8.23351551 30.6451707,7.42326953 C31.4553601,6.61302355 31.9094125,5.51341428 31.9069345,4.36759613 L27.5895854,4.36759613 L27.5895854,4.36759613 Z" id="Path" fill="#DF904A"></path>
                <path d="M27.5895854,4.36759613 L31.8758708,4.36759613 C31.8758708,2.00692827 29.9496503,0.112062682 27.5895854,0.112062682 C25.228616,0.112062682 23.302697,2.00692827 23.302697,4.36759613 C23.302697,6.72856548 25.228616,8.65418306 27.5895854,8.65418306 C29.9496503,8.65418306 31.8758708,6.72826399 31.8758708,4.36759613 L27.5895854,4.36759613 Z" id="Path" fill="#E0914C"></path>
                <path d="M27.5895854,4.36759613 L31.8445159,4.36759613 C31.8445159,2.03798175 29.9188983,0.143417658 27.5895854,0.143417658 C25.2596695,0.143417658 23.3337505,2.03798175 23.3337505,4.36759613 C23.3337505,6.72856548 25.2596695,8.62312958 27.5895854,8.62312958 C29.9191998,8.62312958 31.8445159,6.72856548 31.8445159,4.36759613 L27.5895854,4.36759613 Z" id="Path" fill="#E0914E"></path>
                <path d="M27.5895854,4.36759613 L31.7827104,4.36759613 C31.7827104,2.06903524 29.9188983,0.174169653 27.5895854,0.174169653 C25.2596695,0.174169653 23.3958574,2.06903524 23.3958574,4.36759613 C23.3958574,6.69721051 25.2596695,8.5917746 27.5895854,8.5917746 C29.9191998,8.5917746 31.7827104,6.69721051 31.7827104,4.36759613 L27.5895854,4.36759613 Z" id="Path" fill="#DF924F"></path>
                <path d="M27.5895854,4.36759613 L31.7516569,4.36759613 C31.7516569,2.06903524 29.8878448,0.205524628 27.5895854,0.205524628 C25.290723,0.205524628 23.4269109,2.06933673 23.4269109,4.36759613 C23.4269109,6.66585553 25.290723,8.52996912 27.5895854,8.52996912 C29.8878448,8.52996912 31.7516569,6.66585553 31.7516569,4.36759613 L27.5895854,4.36759613 Z" id="Path" fill="#E09351"></path>
                <path d="M27.5895854,4.36759613 L31.7203019,4.36759613 C31.7203019,2.10008872 29.8564898,0.267631599 27.5895854,0.267631599 C25.3217765,0.267631599 23.4579644,2.10008872 23.4579644,4.36759613 C23.4579644,6.66615702 25.3217765,8.49891564 27.5895854,8.49891564 C29.8567913,8.49891564 31.7203019,6.66615702 31.7203019,4.36759613 L27.5895854,4.36759613 Z" id="Path" fill="#E09552"></path>
                <path d="M27.5895854,4.36759613 L31.6584964,4.36759613 C31.6584964,2.1314437 29.8564898,0.298685084 27.5895854,0.298685084 C25.3217765,0.298685084 23.4890179,2.1314437 23.4890179,4.36759613 C23.4890179,6.63510354 25.3217765,8.46756066 27.5895854,8.46756066 C29.8567913,8.46756066 31.6584964,6.63510354 31.6584964,4.36759613 L27.5895854,4.36759613 Z" id="Path" fill="#E09554"></path>
                <path d="M27.5895854,4.36759613 L31.62745,4.36759613 C31.6294487,3.29607609 31.2046769,2.26786541 30.4469965,1.510185 C29.6893161,0.752504579 28.6611054,0.327732799 27.5895854,0.329730321 C26.5179886,0.327572016 25.4896535,0.752282501 24.7318903,1.50998914 C23.9741271,2.26769577 23.5493398,3.29599916 23.5514187,4.36759613 C23.5514187,6.60405005 25.35283,8.43680867 27.5895854,8.43680867 C29.8254363,8.43680867 31.62745,6.60405005 31.62745,4.36759613 L27.5895854,4.36759613 Z" id="Path" fill="#E09555"></path>
                <path d="M27.5895854,4.36759613 L31.5961012,4.36759613 C31.5961012,2.16219569 29.7946843,0.360792055 27.5895854,0.360792055 C25.3838835,0.360792055 23.5821783,2.16219569 23.5821783,4.36759613 C23.5821783,6.60405005 25.3838835,8.37471339 27.5895854,8.37471339 C28.6530665,8.37727226 29.6737218,7.95590246 30.4256621,7.20384901 C31.1776024,6.45179556 31.5988186,5.4310768 31.5961012,4.36759613 L27.5895854,4.36759613 L27.5895854,4.36759613 Z" id="Path" fill="#E19756"></path>
                <path d="M27.5895854,4.36759613 L31.5650539,4.36759613 C31.5650539,2.19355067 29.7949858,0.422899026 27.5895854,0.422899026 C25.3838835,0.422899026 23.6135139,2.19355067 23.6135139,4.36759613 C23.610236,5.42309042 24.028091,6.43630085 24.7744701,7.18262336 C25.5208492,7.92894587 26.5340914,8.34672407 27.5895854,8.34336704 C28.6449751,8.34656317 29.6580618,7.92871393 30.4043102,7.18240895 C31.1505586,6.43610398 31.568331,5.42298558 31.5650539,4.36759613 L27.5895854,4.36759613 Z" id="Path" fill="#E19757"></path>
                <path d="M27.5895854,4.36759613 L31.5029275,4.36759613 C31.5029275,2.19355067 29.7633294,0.453952511 27.5895854,0.453952511 C25.414937,0.453952511 23.6445868,2.19355067 23.6445868,4.36759613 C23.6445868,6.54194308 25.4152384,8.31229323 27.5895854,8.31229323 C29.7636309,8.31229323 31.5029275,6.54164159 31.5029275,4.36759613 L27.5895854,4.36759613 L27.5895854,4.36759613 Z" id="Path" fill="#E29959"></path>
                <path d="M27.5895854,4.36759613 L31.471874,4.36759613 C31.471874,2.22430266 29.7322759,0.485005996 27.5895854,0.485005996 C25.4459904,0.485005996 23.7066938,2.22430266 23.7066938,4.36759613 C23.7066938,6.5108896 25.4462919,8.28123975 27.5895854,8.28123975 C29.7322759,8.28123975 31.471874,6.5108896 31.471874,4.36759613 L27.5895854,4.36759613 Z" id="Path" fill="#E2995B"></path>
                <path d="M27.5895854,4.36759613 L31.4405191,4.36759613 C31.4405191,2.25565764 29.7009209,0.516059481 27.5895854,0.516059481 C25.4770439,0.516059481 23.7377473,2.25565764 23.7377473,4.36759613 C23.7377473,6.5108896 25.4773454,8.21913278 27.5895854,8.21913278 C29.7012224,8.21913278 31.4405191,6.5108896 31.4405191,4.36759613 L27.5895854,4.36759613 Z" id="Path" fill="#E29B5B"></path>
                <path d="M27.5895854,4.36759613 L31.4100686,4.36759613 C31.4100686,2.28640963 29.7012224,0.578166452 27.5895854,0.578166452 C25.4770439,0.578166452 23.7688007,2.28640963 23.7688007,4.36759613 C23.7688007,6.47983611 25.4773454,8.18807929 27.5895854,8.18807929 C29.7012224,8.18807929 31.4100686,6.47953462 31.4100686,4.36759613 L27.5895854,4.36759613 Z" id="Path" fill="#E29B5D"></path>
                <path d="M27.5895854,4.36759613 L31.3476671,4.36759613 C31.3495856,3.37027602 30.9542747,2.41324492 30.2490899,1.7080035 C29.543905,1.00276209 28.5869057,0.607374452 27.5895854,0.609213506 C25.5080974,0.609213506 23.8309077,2.28640963 23.8309077,4.36759613 C23.8309077,6.44878263 25.5080974,8.1573273 27.5895854,8.1573273 C29.6704704,8.1573273 31.3476671,6.44878263 31.3476671,4.36759613 L27.5895854,4.36759613 L27.5895854,4.36759613 Z" id="Path" fill="#E39D5F"></path>
                <path d="M27.5895854,4.36759613 L31.3163051,4.36759613 C31.3163051,2.31746312 29.6394169,0.640273423 27.5895854,0.640273423 C25.5391509,0.640273423 23.8619612,2.31746312 23.8619612,4.36759613 C23.8619612,6.44878263 25.5391509,8.12597232 27.5895854,8.12597232 C29.6394169,8.12597232 31.3163051,6.44878263 31.3163051,4.36759613 L27.5895854,4.36759613 Z" id="Path" fill="#E39D61"></path>
                <path d="M27.5895854,4.36759613 L31.2858546,4.36759613 C31.2858546,2.3485166 29.6394169,0.671326908 27.5895854,0.671326908 C25.5391509,0.671326908 23.8930147,2.3485166 23.8930147,4.36759613 C23.8930147,6.41772914 25.5391509,8.06386535 27.5895854,8.06386535 C29.6394169,8.06386535 31.2858546,6.41772914 31.2858546,4.36759613 L27.5895854,4.36759613 Z" id="Path" fill="#E39F63"></path>
                <path d="M27.5895854,4.36759613 L31.2544996,4.36759613 C31.2544996,2.3485166 29.6080619,0.733433879 27.5895854,0.733433879 C25.5702044,0.733433879 23.9240682,2.3485166 23.9240682,4.36759613 C23.9240682,6.38667566 25.5702044,8.03311336 27.5895854,8.03311336 C29.6080619,8.03311336 31.2544996,6.38667566 31.2544996,4.36759613 L27.5895854,4.36759613 Z" id="Path" fill="#E39F63"></path>
                <path d="M27.5895854,4.36759613 L31.1920912,4.36759613 C31.1920912,2.37987158 29.5776114,0.764487364 27.5895854,0.764487364 C25.6012579,0.764487364 23.9861751,2.37957009 23.9861751,4.36759613 C23.9861751,6.38667566 25.6012579,8.00175838 27.5895854,8.00175838 C29.5776114,8.00175838 31.1920912,6.38667566 31.1920912,4.36759613 L27.5895854,4.36759613 Z" id="Path" fill="#E39F64"></path>
                <path d="M27.5895854,4.36759613 L31.1616407,4.36759613 C31.1616407,2.41092507 29.5776114,0.795540849 27.5895854,0.795540849 C25.6012579,0.795540849 24.0172286,2.41092507 24.0172286,4.36759613 C24.0172286,6.35562217 25.6012579,7.97100639 27.5895854,7.97100639 C29.5776114,7.97100639 31.1616407,6.35562217 31.1616407,4.36759613 L27.5895854,4.36759613 Z" id="Path" fill="#E4A166"></path>
                <path d="M27.5895854,4.36759613 L31.1302857,4.36759613 C31.1302857,2.41092507 29.5462565,0.826594335 27.5895854,0.826594335 C25.6323114,0.826594335 24.0482821,2.41062358 24.0482821,4.36759613 C24.0482821,6.32456868 25.6323114,7.90889942 27.5895854,7.90889942 C29.5462565,7.90889942 31.1302857,6.32456868 31.1302857,4.36759613 L27.5895854,4.36759613 Z" id="Path" fill="#E4A367"></path>
                <path d="M27.5895854,4.36759613 L31.0992322,4.36759613 C31.0992322,2.44197855 29.515203,0.888701305 27.5895854,0.888701305 C25.6633648,0.888701305 24.0793356,2.44167706 24.0793356,4.36759613 C24.0793356,6.32456868 25.6633648,7.87754444 27.5895854,7.87754444 C29.515203,7.87754444 31.0992322,6.32456868 31.0992322,4.36759613 L27.5895854,4.36759613 Z" id="Path" fill="#E4A369"></path>
                <path d="M27.5895854,4.36759613 L31.0374267,4.36759613 C31.0374267,2.47303204 29.515203,0.91975479 27.5895854,0.91975479 C25.6633648,0.91975479 24.1414426,2.47303204 24.1414426,4.36759613 C24.1414426,6.2935152 25.6633648,7.84649096 27.5895854,7.84649096 C29.515203,7.84649096 31.0374267,6.2935152 31.0374267,4.36759613 L27.5895854,4.36759613 Z" id="Path" fill="#E4A36A"></path>
                <path d="M27.5895854,4.36759613 L31.0060855,4.36759613 C31.0086432,3.46067406 30.6495285,2.59015159 30.0082635,1.94882997 C29.3669985,1.30750835 28.4965077,0.948316824 27.5895854,0.950792788 C26.6825341,0.948075203 25.811841,1.30716978 25.1704277,1.94852648 C24.5290144,2.58988319 24.169843,3.46054464 24.1724815,4.36759613 C24.1724815,6.26246171 25.6944183,7.81543747 27.5895854,7.81543747 C29.483848,7.81543747 31.0060855,6.26246171 31.0060855,4.36759613 L27.5895854,4.36759613 Z" id="Path" fill="#E5A56C"></path>
                <path d="M27.5895854,4.36759613 L30.9750183,4.36759613 C30.9750183,2.50408552 29.4527945,0.982163251 27.5895854,0.982163251 C25.7254718,0.982163251 24.2035495,2.50408552 24.2035495,4.36759613 C24.2035495,6.23140823 25.7254718,7.7533305 27.5895854,7.7533305 C29.4527945,7.7533305 30.9750183,6.23140823 30.9750183,4.36759613 L27.5895854,4.36759613 Z" id="Path" fill="#E5A56C"></path>
                <path d="M27.5895854,4.36759613 L30.9436633,4.36759613 C30.9436633,2.53513901 29.4220425,1.04427022 27.5895854,1.04427022 C25.7565253,1.04427022 24.234603,2.53513901 24.234603,4.36759613 C24.234603,6.23140823 25.7565253,7.72197552 27.5895854,7.72197552 C29.4220425,7.72197552 30.9436633,6.23140823 30.9436633,4.36759613 L27.5895854,4.36759613 Z" id="Path" fill="#E5A76E"></path>
                <path d="M27.5895854,4.36759613 L30.8818578,4.36759613 C30.8818578,2.56619249 29.4220425,1.07532371 27.5895854,1.07532371 C25.7565253,1.07532371 24.2970115,2.56619249 24.2970115,4.36759613 C24.2970115,6.20035474 25.7568268,7.69122353 27.5895854,7.69122353 C29.4220425,7.69122353 30.8818578,6.20035474 30.8818578,4.36759613 L27.5895854,4.36759613 L27.5895854,4.36759613 Z" id="Path" fill="#E5A770"></path>
                <path d="M27.5895854,4.36759613 L30.8505028,4.36759613 C30.8505028,2.56619249 29.3906875,1.10637719 27.5895854,1.10637719 C25.7875788,1.10637719 24.3277635,2.56619249 24.3277635,4.36759613 C24.3277635,6.16930126 25.7875788,7.62911656 27.5895854,7.62911656 C29.390989,7.62911656 30.8505028,6.16930126 30.8505028,4.36759613 L27.5895854,4.36759613 Z" id="Path" fill="#E6A970"></path>
                <path d="M27.5895854,4.36759613 L30.8194494,4.36759613 C30.8194494,2.59724598 29.3596341,1.13743068 27.5895854,1.13743068 C25.8186323,1.13743068 24.358817,2.59724598 24.358817,4.36759613 C24.358817,6.16930126 25.8186323,7.59776158 27.5895854,7.59776158 C29.3596341,7.59776158 30.8194494,6.16930126 30.8194494,4.36759613 L27.5895854,4.36759613 Z" id="Path" fill="#E6A972"></path>
                <path d="M27.5895854,4.36759613 L30.7887006,4.36759613 C30.7887006,2.62829946 29.3596341,1.19953765 27.5895854,1.19953765 C25.8186323,1.19953765 24.3898672,2.62829946 24.3898672,4.36759613 C24.3886678,5.21655372 24.7254031,6.03108174 25.3257356,6.63135773 C25.9260682,7.23163372 26.7406279,7.56829225 27.5895854,7.56701324 C28.4384385,7.56813188 29.2528431,7.23140255 29.8530451,6.63114399 C30.4532471,6.03088543 30.7898997,5.21644908 30.7887006,4.36759613 L27.5895854,4.36759613 L27.5895854,4.36759613 Z" id="Path" fill="#E6AB74"></path>
                <path d="M27.5895854,4.36759613 L30.7263003,4.36759613 C30.7285384,3.53497539 30.3987973,2.73580401 29.8100717,2.14702179 C29.221346,1.55823958 28.4222063,1.22842168 27.5895854,1.23057801 C26.7568079,1.22818052 25.9574352,1.55789194 25.3685136,2.14670041 C24.7795919,2.73550889 24.4497269,3.53481821 24.451966,4.36759613 C24.451966,6.10719429 25.8496857,7.5359561 27.5895854,7.5359561 C29.3285806,7.5359561 30.7263003,6.10719429 30.7263003,4.36759613 L27.5895854,4.36759613 L27.5895854,4.36759613 Z" id="Path" fill="#E6AB75"></path>
                <path d="M27.5895854,4.36759613 L30.6952556,4.36759613 C30.6952556,2.65905146 29.2978286,1.26164462 27.5895854,1.26164462 C25.8810407,1.26164462 24.4830309,2.65935295 24.4830309,4.36759613 C24.4830309,6.10719429 25.8807392,7.47386721 27.5895854,7.47386721 C28.4142199,7.47666596 29.2058834,7.15028621 29.7889348,6.56712156 C30.3719863,5.98395691 30.6982123,5.19223007 30.6952556,4.36759613 L27.5895854,4.36759613 Z" id="Path" fill="#E7AD77"></path>
                <path d="M27.5895854,4.36759613 L30.664511,4.36759613 C30.664511,2.69040643 29.2978286,1.2926981 27.5895854,1.2926981 C25.8810407,1.2926981 24.5140844,2.69040643 24.5140844,4.36759613 C24.5140844,6.0761408 25.8807392,7.44282198 27.5895854,7.44282198 C28.4061841,7.44617972 29.19031,7.12326353 29.7677091,6.54580779 C30.3451083,5.96835205 30.6679476,5.18419449 30.664511,4.36759613 L27.5895854,4.36759613 Z" id="Path" fill="#E7AD77"></path>
                <path d="M27.5895854,4.36759613 L30.6334299,4.36759613 C30.6334299,2.69040643 29.2667751,1.35450358 27.5895854,1.35450358 C25.9120942,1.35450358 24.5451379,2.69040643 24.5451379,4.36759613 C24.5451379,6.04508732 25.9117927,7.41174216 27.5895854,7.41174216 C29.2664736,7.41174216 30.6334299,6.04508732 30.6334299,4.36759613 L27.5895854,4.36759613 Z" id="Path" fill="#E8AF79"></path>
                <path d="M27.5895854,4.36759613 L30.5710215,4.36759613 C30.5710215,2.72145992 29.2354201,1.38585856 27.5895854,1.38585856 C25.9431477,1.38585856 24.6072448,2.72145992 24.6072448,4.36759613 C24.6072448,6.04508732 25.9428462,7.38068868 27.5895854,7.38068868 C29.2354201,7.38068868 30.5710215,6.04508732 30.5710215,4.36759613 L27.5895854,4.36759613 Z" id="Path" fill="#E8AF7B"></path>
                <path d="M27.5895854,4.36759613 L30.5402695,4.36759613 C30.5402695,2.7525134 29.2354201,1.41661056 27.5895854,1.41661056 C25.9431477,1.41661056 24.6382983,2.7525134 24.6382983,4.36759613 C24.6382983,6.01373234 25.9428462,7.3185817 27.5895854,7.3185817 C29.2354201,7.3185817 30.5402695,6.01403383 30.5402695,4.36759613 L27.5895854,4.36759613 Z" id="Path" fill="#E8B17B"></path>
                <path d="M27.5895854,4.36759613 L30.5092176,4.36759613 C30.5100171,3.59301664 30.2026713,2.84993163 29.6549606,2.30222093 C29.1072499,1.75451023 28.3641649,1.44716443 27.5895854,1.44796328 C26.8149015,1.44700417 26.0716614,1.75427921 25.5238202,2.30200731 C24.9759789,2.84973542 24.6685504,3.59291204 24.6693499,4.36759613 C24.6684703,5.14233243 24.9758634,5.8855866 25.5237134,6.43337997 C26.0715633,6.98117334 26.8148492,7.28848973 27.5895854,7.28753047 C28.3641926,7.2882492 29.1072768,6.98083627 29.6549788,6.43307773 C30.2026808,5.88531919 30.510017,5.14220328 30.5092176,4.36759613 L27.5895854,4.36759613 L27.5895854,4.36759613 Z" id="Path" fill="#E8B17D"></path>
                <path d="M27.5895854,4.36759613 L30.477861,4.36759613 C30.477861,2.78356689 29.1736146,1.5100725 27.5895854,1.5100725 C26.0052547,1.5100725 24.7004053,2.78356689 24.7004053,4.36759613 C24.7004053,5.95162537 26.0049532,7.25647473 27.5895854,7.25647473 C29.1736146,7.25647473 30.477861,5.95192686 30.477861,4.36759613 L27.5895854,4.36759613 Z" id="Path" fill="#E8B17E"></path>
                <path d="M27.5895854,4.36759613 L30.4160555,4.36759613 C30.4160555,2.81462037 29.1422597,1.54110939 27.5895854,1.54110939 C26.8391451,1.53855183 26.1186938,1.83550341 25.5880209,2.36611968 C25.0573481,2.89673596 24.7603196,3.61715552 24.7627982,4.36759613 C24.7627982,5.95162537 26.0052547,7.22511976 27.5895854,7.22511976 C29.1422597,7.22511976 30.4160555,5.95162537 30.4160555,4.36759613 L27.5895854,4.36759613 L27.5895854,4.36759613 Z" id="Path" fill="#E9B381"></path>
                <path d="M27.5895854,4.36759613 L30.3847255,4.36759613 C30.3878424,3.62529915 30.0943766,2.91249289 29.5695169,2.38757666 C29.0446573,1.86266042 28.3318827,1.56911774 27.5895854,1.57215451 C26.8472085,1.56903769 26.1343255,1.86253525 25.6093527,2.38745141 C25.08438,2.91236757 24.7908055,3.62521885 24.7938435,4.36759613 C24.7908061,5.11000089 25.084371,5.82288272 25.6093349,6.34784663 C26.1342988,6.87281053 26.8471806,7.16637545 27.5895854,7.16333798 C28.3319105,7.16629539 29.044684,6.87268537 29.5695348,6.34772139 C30.0943855,5.82275741 30.3878418,5.1099206 30.3847255,4.36759613 L27.5895854,4.36759613 Z" id="Path" fill="#E9B381"></path>
                <path d="M27.5895854,4.36759613 L30.3536471,4.36759613 C30.3536471,2.84567386 29.1112062,1.60323296 27.5895854,1.60323296 C26.0673616,1.60323296 24.8249207,2.84567386 24.8249207,4.36759613 C24.8249207,5.8895184 26.0673616,7.1319593 27.5895854,7.1319593 C29.1112062,7.1319593 30.3536471,5.8895184 30.3536471,4.36759613 L27.5895854,4.36759613 L27.5895854,4.36759613 Z" id="Path" fill="#E9B583"></path>
                <path d="M27.5895854,4.36759613 L30.3228951,4.36759613 C30.3228951,2.87672735 29.0798512,1.66533993 27.5895854,1.66533993 C26.0984151,1.66533993 24.8559742,2.87672735 24.8559742,4.36759613 C24.8559742,5.8895184 26.0984151,7.10090582 27.5895854,7.10090582 C29.0798512,7.10090582 30.3228951,5.8895184 30.3228951,4.36759613 L27.5895854,4.36759613 L27.5895854,4.36759613 Z" id="Path" fill="#E9B584"></path>
                <path d="M27.5895854,4.36759613 L30.2604866,4.36759613 C30.2604866,2.90778083 29.0798512,1.69639341 27.5895854,1.69639341 C26.0984151,1.69639341 24.9180812,2.90778083 24.9180812,4.36759613 C24.9180812,5.85846492 26.0984151,7.06985233 27.5895854,7.06985233 C29.0798512,7.06985233 30.2604866,5.85846492 30.2604866,4.36759613 L27.5895854,4.36759613 Z" id="Path" fill="#EAB786"></path>
                <path d="M27.5895854,4.36759613 L30.2294342,4.36759613 C30.2300738,3.66724107 29.9521631,2.99538222 29.4569654,2.50012793 C28.9617676,2.00487364 28.2899405,1.72688626 27.5895854,1.72744605 C26.1294686,1.72744605 24.9491347,2.90778083 24.9491347,4.36759613 C24.9491347,5.82741143 26.1294686,7.00774621 27.5895854,7.00774621 C28.2899405,7.008306 28.9617676,6.73031862 29.4569654,6.23506433 C29.9521631,5.73981004 30.2300738,5.06795119 30.2294342,4.36759613 L27.5895854,4.36759613 L27.5895854,4.36759613 Z" id="Path" fill="#EAB788"></path>
                <path d="M27.5895854,4.36759613 L30.1980782,4.36759613 C30.1980782,2.93883432 29.0180457,1.75850038 27.5895854,1.75850038 C26.1605221,1.75850038 24.9801882,2.93883432 24.9801882,4.36759613 C24.9801882,5.82741143 26.1605221,6.97669188 27.5895854,6.97669188 C29.0180457,6.97669188 30.1980782,5.82741143 30.1980782,4.36759613 L27.5895854,4.36759613 Z" id="Path" fill="#EBB989"></path>
                <path d="M27.5895854,4.36759613 L30.1676355,4.36759613 C30.1676355,2.9698878 29.0183472,1.82060735 27.5895854,1.82060735 C26.1605221,1.82060735 25.0112338,2.9698878 25.0112338,4.36759613 C25.0095547,5.0519035 25.2806687,5.70866502 25.7645769,6.19251658 C26.248485,6.67636814 26.9052782,6.9474054 27.5895854,6.94564698 C28.2738404,6.94732504 28.930556,6.67625231 29.4143988,6.1924095 C29.8982416,5.70856669 30.1693143,5.05185112 30.1676355,4.36759613 L27.5895854,4.36759613 L27.5895854,4.36759613 Z" id="Path" fill="#EBB98A"></path>
                <path d="M27.5895854,4.36759613 L30.1052415,4.36759613 C30.1080386,3.69952057 29.8439146,3.05798894 29.3715379,2.58555566 C28.8991613,2.11312239 28.2576613,1.84892146 27.5895854,1.85163975 C26.1915756,1.85163975 25.0733486,2.96958631 25.0733486,4.36759613 C25.0733486,5.76560595 26.1915756,6.9148864 27.5895854,6.9148864 C28.9869922,6.9148864 30.1052415,5.76560595 30.1052415,4.36759613 L27.5895854,4.36759613 Z" id="Path" fill="#EBBB8C"></path>
                <path d="M27.5895854,4.36759613 L30.0738642,4.36759613 C30.0738642,3.00094129 28.9562402,1.88271433 27.5895854,1.88271433 C26.2226291,1.88271433 25.1044021,3.0006398 25.1044021,4.36759613 C25.1044021,5.76530446 26.2226291,6.85277943 27.5895854,6.85277943 C28.9562402,6.85277943 30.0738642,5.76560595 30.0738642,4.36759613 L27.5895854,4.36759613 Z" id="Path" fill="#EBBB8C"></path>
                <path d="M27.5895854,4.36759613 L30.0434588,4.36759613 C30.0434588,3.03199477 28.9565417,1.91376781 27.5895854,1.91376781 C26.2226291,1.91376781 25.1354123,3.03169328 25.1354123,4.36759613 C25.1315753,5.019626 25.3888982,5.64606975 25.8499894,6.10710434 C26.3110806,6.56813892 26.937556,6.82538483 27.5895854,6.82146953 C28.2415874,6.82538564 28.8680324,6.56813026 29.329076,6.1070867 C29.7901195,5.64604315 30.0473749,5.01959814 30.0434588,4.36759613 L27.5895854,4.36759613 Z" id="Path" fill="#ECBD8F"></path>
                <path d="M27.5895854,4.36759613 L30.0120587,4.36759613 C30.0120587,3.03199477 28.9251868,1.97587478 27.5895854,1.97587478 C26.2536825,1.97587478 25.1665091,3.03169328 25.1665091,4.36759613 C25.1665091,5.70349898 26.2536825,6.79067245 27.5895854,6.79067245 C28.9251868,6.79067245 30.0120587,5.70349898 30.0120587,4.36759613 L27.5895854,4.36759613 Z" id="Path" fill="#ECBD90"></path>
                <path d="M27.5895854,4.36759613 L29.9496506,4.36759613 C29.9499703,3.74151452 29.7014433,3.14097485 29.2587933,2.6982117 C28.8161432,2.25544854 28.2156671,2.00676818 27.5895854,2.00692796 C26.9633716,2.00660819 26.3627095,2.25520828 25.9198811,2.69798011 C25.4770527,3.14075194 25.2283759,3.74138227 25.2286159,4.36759613 C25.2286159,5.672144 26.284736,6.75931748 27.5895854,6.75931748 C28.8938318,6.75931748 29.9496506,5.672144 29.9496506,4.36759613 L27.5895854,4.36759613 Z" id="Path" fill="#ECBF93"></path>
                <path d="M27.5895854,4.36759613 L29.9191998,4.36759613 C29.9191998,3.09410174 28.8627783,2.03798175 27.5895854,2.03798175 C26.284736,2.03798175 25.2596695,3.09410174 25.2596695,4.36759613 C25.2596695,5.672144 26.284736,6.69721051 27.5895854,6.69721051 C28.8627783,6.69721051 29.9191998,5.672144 29.9191998,4.36759613 L27.5895854,4.36759613 Z" id="Path" fill="#ECBF93"></path>
                <path d="M27.5895854,4.36759613 L29.8878512,4.36759613 C29.8878512,3.09410174 28.8627783,2.06903524 27.5895854,2.06903524 C26.3157895,2.06903524 25.290723,3.09380025 25.290723,4.36759613 C25.290723,5.64139201 26.3157895,6.66616277 27.5895854,6.66616277 C28.1995914,6.66752215 28.785002,6.42578177 29.2163142,5.99441299 C29.6476264,5.56304422 29.8892899,4.97760199 29.8878512,4.36759613 L27.5895854,4.36759613 L27.5895854,4.36759613 Z" id="Path" fill="#EDC195"></path>
                <path d="M27.5895854,4.36759613 L29.8567913,4.36759613 C29.8567913,3.12515523 28.8323278,2.1314437 27.5895854,2.1314437 C26.346843,2.1314437 25.3217765,3.12545672 25.3217765,4.36759613 C25.3217765,5.61003703 26.346843,6.63510354 27.5895854,6.63510354 C28.8320263,6.63510354 29.8567913,5.61003703 29.8567913,4.36759613 L27.5895854,4.36759613 Z" id="Path" fill="#EDC196"></path>
                <path d="M27.5895854,4.36759613 L29.7946843,4.36759613 C29.7946843,3.15620871 28.8006713,2.16219569 27.5895854,2.16219569 C26.3778965,2.16219569 25.3838835,3.15620871 25.3838835,4.36759613 C25.3838835,5.61003703 26.3778965,6.60405005 27.5895854,6.60405005 C28.8009728,6.60405005 29.7946843,5.61003703 29.7946843,4.36759613 L27.5895854,4.36759613 L27.5895854,4.36759613 Z" id="Path" fill="#EEC397"></path>
                <path d="M27.5895854,4.36759613 L29.7636738,4.36759613 C29.7636738,3.1872622 28.8009728,2.19355067 27.5895854,2.19355067 C26.3778965,2.19355067 25.4148959,3.18756369 25.4148959,4.36759613 C25.4113786,4.94540464 25.6393596,5.50057404 26.047968,5.90912577 C26.4565764,6.31767751 27.0117774,6.54558153 27.5895854,6.54198599 C28.1673139,6.54550143 28.7224067,6.3175522 29.1309019,5.90900035 C29.5393971,5.5004485 29.7672693,4.94532418 29.7636738,4.36759613 L27.5895854,4.36759613 Z" id="Path" fill="#EEC399"></path>
                <path d="M27.5895854,4.36759613 L29.7322759,4.36759613 C29.7322759,3.1872622 28.7696178,2.22430266 27.5895854,2.22430266 C26.40895,2.22430266 25.4459904,3.1872622 25.4459904,4.36759613 C25.4459904,5.54823155 26.40895,6.5108896 27.5895854,6.5108896 C28.7696178,6.5108896 29.7322759,5.54823155 29.7322759,4.36759613 L27.5895854,4.36759613 Z" id="Path" fill="#EEC59B"></path>
                <path d="M27.5895854,4.36759613 L29.7012224,4.36759613 C29.7012224,3.21831568 28.7385644,2.28640963 27.5895854,2.28640963 C26.4400035,2.28640963 25.4770439,3.21831568 25.4770439,4.36759613 C25.4770439,5.54823155 26.4400035,6.47983611 27.5895854,6.47983611 C28.7385644,6.47983611 29.7012224,5.54823155 29.7012224,4.36759613 L27.5895854,4.36759613 Z" id="Path" fill="#EEC69D"></path>
                <path d="M27.5895854,4.36759613 L29.6394169,4.36759613 C29.6394169,3.24967066 28.7385644,2.31746312 27.5895854,2.31746312 C26.4400035,2.31746312 25.5391509,3.24936917 25.5391509,4.36759613 C25.5391509,5.51687658 26.4400035,6.44878263 27.5895854,6.44878263 C28.7385644,6.44878263 29.6394169,5.51687658 29.6394169,4.36759613 L27.5895854,4.36759613 Z" id="Path" fill="#EEC69F"></path>
                <path d="M27.5895854,4.36759613 L29.6080664,4.36759613 C29.6091046,3.83188852 29.3967984,3.3178132 29.0180518,2.93895343 C28.6393052,2.56009366 28.1252933,2.34763396 27.5895854,2.34851217 C27.0537209,2.34739319 26.5394762,2.55974659 26.1605337,2.93863255 C25.7815912,3.3175185 25.569161,3.83173149 25.5702006,4.36759613 C25.569161,4.90346077 25.7815912,5.41767376 26.1605337,5.79655971 C26.5394762,6.17544567 27.0537209,6.38779907 27.5895854,6.38668009 C28.1253179,6.3876388 28.6393766,6.17520494 29.0181407,5.79632768 C29.3969048,5.41745043 29.6091851,4.90332831 29.6080664,4.36759613 L27.5895854,4.36759613 L27.5895854,4.36759613 Z" id="Path" fill="#EFC89F"></path>
                <path d="M27.5895854,4.36759613 L29.5776207,4.36759613 C29.5776207,3.28072414 28.6767589,2.37987158 27.5895854,2.37987158 C26.5021104,2.37987158 25.6012487,3.28072414 25.6012487,4.36759613 C25.5996494,4.89539715 25.8086265,5.4020402 26.1818682,5.77522531 C26.5551099,6.14841043 27.0617846,6.35731064 27.5895854,6.35563233 C28.117334,6.35723019 28.623931,6.14829446 28.9971074,5.77511811 C29.3702837,5.40194176 29.5792195,4.89534473 29.5776207,4.36759613 L27.5895854,4.36759613 L27.5895854,4.36759613 Z" id="Path" fill="#EFC8A1"></path>
                <path d="M27.5895854,4.36759613 L29.5462736,4.36759613 C29.5462736,3.31177763 28.6764574,2.44197855 27.5895854,2.44197855 C26.5021104,2.44197855 25.6322943,3.31177763 25.6322943,4.36759613 C25.6301355,4.88733381 25.8356586,5.38640846 26.2032002,5.75389341 C26.5707418,6.12137836 27.0698481,6.3268246 27.5895854,6.32458707 C28.1092185,6.32666336 28.6081692,6.12114593 28.9755799,5.75367859 C29.3429906,5.38621124 29.5484312,4.88722886 29.5462736,4.36759613 L27.5895854,4.36759613 L27.5895854,4.36759613 Z" id="Path" fill="#EFCAA3"></path>
                <path d="M27.5895854,4.36759613 L29.483848,4.36759613 C29.4871647,3.8641694 29.2886661,3.38039605 28.9327103,3.02438354 C28.5767544,2.66837104 28.0930126,2.4697955 27.5895854,2.47303204 C27.0860514,2.46971625 26.602171,2.66823711 26.2460543,3.02424051 C25.8899376,3.38024391 25.6912628,3.86406106 25.6943813,4.36759613 C25.6943813,5.42371612 26.5331639,6.2935152 27.5895854,6.2935152 C28.6454039,6.2935152 29.483848,5.42401761 29.483848,4.36759613 L27.5895854,4.36759613 L27.5895854,4.36759613 Z" id="Path" fill="#EFCAA3"></path>
                <path d="M27.5895854,4.36759613 L29.4527945,4.36759613 C29.4527945,3.34252962 28.6143504,2.50408552 27.5895854,2.50408552 C26.5642174,2.50408552 25.7254718,3.34252962 25.7254718,4.36759613 C25.7254718,5.39266264 26.5642174,6.23140823 27.5895854,6.23140823 C28.6140489,6.23140823 29.4527945,5.39266264 29.4527945,4.36759613 L27.5895854,4.36759613 L27.5895854,4.36759613 Z" id="Path" fill="#F0CCA6"></path>
                <path d="M27.5895854,4.36759613 L29.4220425,4.36759613 C29.4220425,3.3738846 28.5829954,2.53513901 27.5895854,2.53513901 C26.5642174,2.53513901 25.7565253,3.3738846 25.7565253,4.36759613 C25.7565253,5.39266264 26.5642174,6.20035474 27.5895854,6.20035474 C28.5829954,6.20035474 29.4220425,5.39266264 29.4220425,4.36759613 L27.5895854,4.36759613 Z" id="Path" fill="#F0CCA8"></path>
                <path d="M27.5895854,4.36759613 L29.390989,4.36759613 C29.390989,3.3738846 28.5829954,2.59724598 27.5895854,2.59724598 C26.5955724,2.59724598 25.7875788,3.3738846 25.7875788,4.36759613 C25.7882441,5.36249238 26.5946891,6.16880237 27.5895854,6.16930126 C28.5842463,6.16846982 29.3903241,5.36225712 29.390989,4.36759613 L27.5895854,4.36759613 L27.5895854,4.36759613 Z" id="Path" fill="#F1CEAA"></path>
                <path d="M27.5895854,4.36759613 L29.3285838,4.36759613 C29.3294629,3.90608831 29.1465409,3.46322429 28.8202333,3.13686009 C28.4939257,2.8104959 28.0510934,2.62749711 27.5895854,2.62829684 C26.6263244,2.62829684 25.8496857,3.4046366 25.8496857,4.36759613 C25.8496857,5.33055566 26.6263244,6.13824777 27.5895854,6.13824777 C28.5522434,6.13824777 29.3285838,5.33055566 29.3285838,4.36759613 L27.5895854,4.36759613 L27.5895854,4.36759613 Z" id="Path" fill="#F1CEAA"></path>
                <path d="M27.5895854,4.36759613 L29.2978363,4.36759613 C29.2978363,3.43599157 28.52119,2.65905146 27.5895854,2.65905146 C26.6573779,2.65905146 25.881033,3.43569008 25.881033,4.36759613 C25.879674,4.82114796 26.0592419,5.25651753 26.379953,5.57722856 C26.700664,5.89793959 27.1360336,6.07750754 27.5895854,6.07614855 C28.0430851,6.07742711 28.4783769,5.89782366 28.7990226,5.57712139 C29.1196683,5.25641913 29.2991949,4.82109555 29.2978363,4.36759613 L27.5895854,4.36759613 L27.5895854,4.36759613 Z" id="Path" fill="#F1D0AD"></path>
                <path d="M27.5895854,4.36759613 L29.2664894,4.36759613 C29.2664894,3.46674357 28.5208885,2.69040643 27.5895854,2.69040643 C26.6573779,2.69040643 25.9120784,3.46674357 25.9120784,4.36759613 C25.9101601,4.81308457 26.0862741,5.24088571 26.401285,5.55589657 C26.7162958,5.87090744 27.144097,6.04702145 27.5895854,6.04510308 C28.0349696,6.0468602 28.4626151,5.870675 28.7774951,5.55568174 C29.0923752,5.24068848 29.2684066,4.81297962 29.2664894,4.36759613 L27.5895854,4.36759613 Z" id="Path" fill="#F1D0AE"></path>
                <path d="M27.5895854,4.36759613 L29.2354201,4.36759613 C29.2354201,3.46674357 28.489835,2.7525134 27.5895854,2.7525134 C26.6887328,2.7525134 25.9431477,3.46674357 25.9431477,4.36759613 C25.9431477,5.26844869 26.6887328,6.01373234 27.5895854,6.01373234 C28.489835,6.01373234 29.2354201,5.2681472 29.2354201,4.36759613 L27.5895854,4.36759613 Z" id="Path" fill="#F2D2B1"></path>
                <path d="M27.5895854,4.36759613 L29.1736146,4.36759613 C29.1736146,3.49809854 28.4587815,2.78356689 27.5895854,2.78356689 C26.7197863,2.78356689 26.0052547,3.49809854 26.0052547,4.36759613 C26.0052547,5.26844869 26.7200878,5.98267886 27.5895854,5.98267886 C28.4587815,5.98267886 29.1736146,5.2681472 29.1736146,4.36759613 L27.5895854,4.36759613 Z" id="Path" fill="#F2D2B3"></path>
                <path d="M27.5895854,4.36759613 L29.1422597,4.36759613 C29.1422597,3.52885054 28.45848,2.81462037 27.5895854,2.81462037 C26.7197863,2.81462037 26.0363082,3.52885054 26.0363082,4.36759613 C26.0363082,5.23739521 26.7200878,5.92057189 27.5895854,5.92057189 C28.4587815,5.92057189 29.1422597,5.23709372 29.1422597,4.36759613 L27.5895854,4.36759613 Z" id="Path" fill="#F3D4B4"></path>
                <path d="M27.5895854,4.36759613 L29.1112062,4.36759613 C29.1100441,3.52766115 28.4295201,2.84700233 27.5895854,2.84567386 C26.7505383,2.84567386 26.0673616,3.52915203 26.0673616,4.36759613 C26.0673616,5.20604023 26.7505383,5.8895184 27.5895854,5.8895184 C28.4294514,5.88802443 29.1098786,5.20746242 29.1112062,4.36759613 L27.5895854,4.36759613 Z" id="Path" fill="#F3D4B5"></path>
                <path d="M27.5895854,4.36759613 L29.0798512,4.36759613 C29.0798512,3.56020551 28.3966745,2.90778083 27.5895854,2.90778083 C26.7815918,2.90778083 26.0984151,3.56020551 26.0984151,4.36759613 C26.0984151,5.20634172 26.7818933,5.85846492 27.5895854,5.85846492 C28.396976,5.85846492 29.0798512,5.20604023 29.0798512,4.36759613 L27.5895854,4.36759613 Z" id="Path" fill="#F3D4B7"></path>
                <path d="M27.5895854,4.36759613 L29.0180511,4.36759613 C29.01909,3.98839804 28.868937,3.62442557 28.6008307,3.35626272 C28.3327245,3.08809986 27.9687837,2.93787004 27.5895854,2.93882804 C27.2102827,2.93770925 26.8461866,3.08786809 26.5779497,3.35604845 C26.3097127,3.62422882 26.1594771,3.98829325 26.1605167,4.36759613 C26.1605167,5.17528824 26.7818933,5.82741143 27.5895854,5.82741143 C28.396976,5.82741143 29.0180511,5.17498675 29.0180511,4.36759613 L27.5895854,4.36759613 L27.5895854,4.36759613 Z" id="Path" fill="#F3D6B8"></path>
                <path d="M27.5895854,4.36759613 L28.9870041,4.36759613 C28.9885223,3.9964862 28.841797,3.64012974 28.5794087,3.37768486 C28.3170204,3.11523997 27.9606957,2.96843781 27.5895854,2.96987716 C26.8129468,2.96987716 26.1915756,3.591259 26.1915756,4.36759613 C26.1915756,5.14393326 26.8129468,5.7653151 27.5895854,5.7653151 C27.9606957,5.76675445 28.3170204,5.61995229 28.5794087,5.3575074 C28.841797,5.09506252 28.9885223,4.73870606 28.9870041,4.36759613 L27.5895854,4.36759613 Z" id="Path" fill="#F4D8BA"></path>
                <path d="M27.5895854,4.36759613 L28.9562402,4.36759613 C28.9562402,3.62201099 28.334869,3.00094129 27.5895854,3.00094129 C26.8443017,3.00094129 26.2226291,3.62231248 26.2226291,4.36759613 C26.2226291,5.14423475 26.8443017,5.73425097 27.5895854,5.73425097 C28.334869,5.73425097 28.9562402,5.14393326 28.9562402,4.36759613 L27.5895854,4.36759613 Z" id="Path" fill="#F4D9BC"></path>
                <path d="M27.5895854,4.36759613 L28.9251868,4.36759613 C28.9251868,3.65306448 28.3351705,3.06304826 27.5895854,3.06304826 C26.8440003,3.06304826 26.2536825,3.65306448 26.2536825,4.36759613 C26.2536825,5.11318127 26.8440003,5.70319749 27.5895854,5.70319749 C28.3351705,5.70319749 28.9251868,5.11287978 28.9251868,4.36759613 L27.5895854,4.36759613 L27.5895854,4.36759613 Z" id="Path" fill="#F4D9BE"></path>
                <path d="M27.5895854,4.36759613 L28.8627783,4.36759613 C28.8627783,3.65306448 28.3038156,3.09410174 27.5895854,3.09410174 C26.8747523,3.09410174 26.3157895,3.65306448 26.3157895,4.36759613 C26.3157895,5.08212778 26.8747523,5.672144 27.5895854,5.672144 C28.3038156,5.672144 28.8627783,5.08182629 28.8627783,4.36759613 L27.5895854,4.36759613 Z" id="Path" fill="#F4DBBF"></path>
                <path d="M27.5895854,4.36759613 L28.8320263,4.36759613 C28.8300393,3.68223971 28.2749418,3.12714226 27.5895854,3.12515523 C26.9058057,3.12515523 26.346843,3.68411796 26.346843,4.36759613 C26.346843,5.0510743 26.9058057,5.61003703 27.5895854,5.61003703 C28.2749418,5.60805 28.8300393,5.05295255 28.8320263,4.36759613 L27.5895854,4.36759613 L27.5895854,4.36759613 Z" id="Path" fill="#F4DBC0"></path>
                <path d="M27.5895854,4.36759613 L28.8009728,4.36759613 C28.8009728,3.71517145 28.2417086,3.15620871 27.5895854,3.15620871 C26.9371607,3.15620871 26.3778965,3.71517145 26.3778965,4.36759613 C26.3778965,5.0510743 26.9371607,5.57898355 27.5895854,5.57898355 C28.2414071,5.57898355 28.8009728,5.0510743 28.8009728,4.36759613 L27.5895854,4.36759613 Z" id="Path" fill="#F5DDC3"></path>
                <path d="M27.5895854,4.36759613 L28.7696178,4.36759613 C28.7696178,3.74622493 28.2414071,3.21831568 27.5895854,3.21831568 C26.9371607,3.21831568 26.40895,3.74622493 26.40895,4.36759613 C26.40895,5.01947656 26.9374035,5.54793006 27.5892839,5.54793006 C28.2411643,5.54793006 28.7696178,5.01947656 28.7696178,4.36759613 L27.5895854,4.36759613 Z" id="Path" fill="#F5DDC3"></path>
                <path d="M27.5895854,4.36759613 L28.7072094,4.36759613 C28.7072094,3.74622493 28.2109566,3.24967066 27.5895854,3.24967066 C26.9682142,3.24967066 26.4710569,3.74652642 26.4710569,4.36759613 C26.4710569,4.98866584 26.9682142,5.51687658 27.5895854,5.51687658 C28.2109566,5.51687658 28.7072094,4.98896733 28.7072094,4.36759613 L27.5895854,4.36759613 Z" id="Path" fill="#F6DFC6"></path>
                <path d="M27.5895854,4.36759613 L28.6764574,4.36759613 C28.6764574,3.77727842 28.1796016,3.28072414 27.5895854,3.28072414 C26.9989662,3.28072414 26.5021104,3.77757991 26.5021104,4.36759613 C26.5021104,4.98896733 26.9989662,5.45476961 27.5895854,5.45476961 C28.1796016,5.45476961 28.6764574,4.98896733 28.6764574,4.36759613 L27.5895854,4.36759613 Z" id="Path" fill="#F6DFC7"></path>
                <path d="M27.5895854,4.36759613 L28.6454039,4.36759613 C28.6454039,3.80863339 28.1796016,3.31177763 27.5895854,3.31177763 C26.9989662,3.31177763 26.5331639,3.80863339 26.5331639,4.36759613 C26.5308087,4.64846436 26.6413632,4.91850916 26.8400024,5.11709163 C27.0386415,5.31567409 27.3087179,5.42615154 27.5895854,5.42371612 C27.8703489,5.42598897 28.1402689,5.31543974 28.3387768,5.11687515 C28.5372847,4.91831056 28.6477569,4.64835892 28.6454039,4.36759613 L27.5895854,4.36759613 Z" id="Path" fill="#F6E1CA"></path>
                <path d="M27.5895854,4.36759613 L28.6140489,4.36759613 C28.6140489,3.80863339 28.1482466,3.3738846 27.5895854,3.3738846 C27.0303212,3.3738846 26.5642174,3.80863339 26.5642174,4.36759613 C26.5642174,4.92686036 27.0300197,5.39266264 27.5895854,5.39266264 C28.1485481,5.39266264 28.6140489,4.92686036 28.6140489,4.36759613 L27.5895854,4.36759613 Z" id="Path" fill="#F6E1CC"></path>
                <path d="M27.5895854,4.36759613 L28.5522434,4.36759613 C28.549606,3.83698205 28.1201986,3.40744018 27.5895854,3.4046366 C27.0587367,3.40711066 26.6289646,3.83674822 26.6263244,4.36759613 C26.6263244,4.92686036 27.0613747,5.36160915 27.5895854,5.36160915 C28.1171932,5.36160915 28.5522434,4.92686036 28.5522434,4.36759613 L27.5895854,4.36759613 L27.5895854,4.36759613 Z" id="Path" fill="#F7E3CD"></path>
                <path d="M27.5895854,4.36759613 L28.52119,4.36759613 C28.52119,3.87074037 28.1171932,3.43599157 27.5895854,3.43599157 C27.0613747,3.43599157 26.6573779,3.87074037 26.6573779,4.36759613 C26.6573779,4.89550538 27.0613747,5.29950218 27.5895854,5.29950218 C28.1171932,5.29950218 28.52119,4.89550538 28.52119,4.36759613 L27.5895854,4.36759613 Z" id="Path" fill="#F7E3CF"></path>
                <path d="M27.5895854,4.36759613 L28.489835,4.36759613 C28.4895029,3.87044199 28.0867392,3.46740854 27.5895854,3.46674357 C27.1011346,3.47938167 26.7117399,3.87898185 26.7117399,4.36759613 C26.7117399,4.85621041 27.1011346,5.25581059 27.5895854,5.26844869 C28.0868081,5.26794967 28.4896689,4.86481905 28.489835,4.36759613 L27.5895854,4.36759613 L27.5895854,4.36759613 Z" id="Path" fill="#F7E3D0"></path>
                <path d="M27.5895854,4.36759613 L28.4587841,4.36759613 C28.4587841,3.90179385 28.0553877,3.52885054 27.5895854,3.52885054 C27.1231801,3.52885054 26.7197844,3.90179385 26.7197844,4.36759613 C26.7193047,4.59842848 26.8107894,4.81994519 26.9740129,4.98316867 C27.1372363,5.14639215 27.358753,5.23787678 27.5895854,5.2373971 C27.820338,5.23779678 28.0417463,5.14626714 28.2048566,4.98304362 C28.367967,4.81982011 28.4593431,4.59834836 28.4587841,4.36759613 L27.5895854,4.36759613 L27.5895854,4.36759613 Z" id="Path" fill="#F8E5D1"></path>
                <path d="M27.5895854,4.36759613 L28.396976,4.36759613 C28.396976,3.93284734 28.0553877,3.56020551 27.5895854,3.56020551 C27.3749046,3.55858637 27.168538,3.64311094 27.0166748,3.79486083 C26.8648115,3.94661071 26.7801329,4.15291419 26.7815918,4.36759613 C26.7815918,4.83339841 27.1231801,5.20634172 27.5895854,5.20634172 C28.0553877,5.20634172 28.396976,4.8336999 28.396976,4.36759613 L27.5895854,4.36759613 L27.5895854,4.36759613 Z" id="Path" fill="#F8E8D4"></path>
                <path d="M27.5895854,4.36759613 L28.365621,4.36759613 C28.367736,4.16108244 28.2866743,3.96240209 28.1406962,3.8163105 C27.994718,3.67021892 27.7961007,3.58900292 27.5895854,3.59095751 C27.382991,3.58892275 27.1842655,3.67009338 27.038174,3.81618478 C26.8920826,3.96227619 26.810912,4.1610017 26.8129468,4.36759613 C26.8108291,4.57421542 26.8919731,4.77298928 27.0380827,4.91909886 C27.1841922,5.06520843 27.3829661,5.14635242 27.5895854,5.14423475 C27.7961007,5.14618934 27.994718,5.06497334 28.1406962,4.91888176 C28.2866743,4.77279017 28.367736,4.57410982 28.365621,4.36759613 L27.5895854,4.36759613 L27.5895854,4.36759613 Z" id="Path" fill="#F8E8D6"></path>
                <path d="M27.5895854,4.36759613 L28.3351705,4.36759613 C28.3351705,3.96390082 27.9929792,3.65306448 27.5895854,3.65306448 C27.1855886,3.65306448 26.8440003,3.96359933 26.8440003,4.36759613 C26.8440003,4.77159293 27.1855886,5.11318127 27.5895854,5.11318127 C27.9929792,5.11318127 28.3351705,4.77159293 28.3351705,4.36759613 L27.5895854,4.36759613 Z" id="Path" fill="#F8E8D8"></path>
                <path d="M27.5895854,4.36759613 L28.3038156,4.36759613 C28.3038156,3.99495431 27.9616242,3.68411796 27.5895854,3.68411796 C27.2163406,3.68411796 26.8747523,3.99495431 26.8747523,4.36759613 C26.8747523,4.77129144 27.2163406,5.08212778 27.5895854,5.08212778 C27.9616242,5.08212778 28.3038156,4.77159293 28.3038156,4.36759613 L27.5895854,4.36759613 Z" id="Path" fill="#F9EAD9"></path>
                <path d="M27.5895854,4.36759613 L28.2414071,4.36759613 C28.2414071,4.02600779 27.9616242,3.71517145 27.5895854,3.71517145 C27.2163406,3.71517145 26.9371607,4.0257063 26.9371607,4.36759613 C26.9371607,4.74053944 27.2163406,5.0510743 27.5895854,5.0510743 C27.9616242,5.0510743 28.2414071,4.74053944 28.2414071,4.36759613 L27.5895854,4.36759613 Z" id="Path" fill="#FAECDC"></path>
                <path d="M27.5895854,4.36759613 L28.2109566,4.36759613 C28.2097986,4.02490311 27.9322784,3.74738297 27.5895854,3.74622493 C27.2473941,3.74622493 26.9682142,4.0257063 26.9682142,4.36759613 C26.9682142,4.70948596 27.2473941,4.98896733 27.5895854,4.98896733 C27.9323469,4.98797381 28.2099631,4.71035759 28.2109566,4.36759613 L27.5895854,4.36759613 L27.5895854,4.36759613 Z" id="Path" fill="#FAECDD"></path>
                <path d="M27.5895854,4.36759613 L28.1796017,4.36759613 C28.1796017,4.05706128 27.8998188,3.80863339 27.5895854,3.80863339 C27.2787491,3.80863339 26.9989662,4.05706128 26.9989662,4.36759613 C26.9989662,4.70918447 27.2787491,4.95791384 27.5895854,4.95791384 C27.7461197,4.95791384 27.8962383,4.89571023 28.0068965,4.78499551 C28.1175547,4.67428079 28.1796816,4.52413039 28.1796017,4.36759613 L27.5895854,4.36759613 L27.5895854,4.36759613 Z" id="Path" fill="#FAECDF"></path>
                <path d="M27.5895854,4.36759613 L28.1485534,4.36759613 C28.1485534,4.08811476 27.9001203,3.83968688 27.5895854,3.83968688 C27.2787491,3.83968688 27.0303212,4.08811476 27.0303212,4.36759613 C27.0303212,4.67843247 27.2787491,4.92686438 27.5895854,4.92686438 C27.7380561,4.92742445 27.8806042,4.8686736 27.9855613,4.76365993 C28.0905183,4.65864627 28.1491923,4.51606646 28.1485534,4.36759613 L27.5895854,4.36759613 Z" id="Path" fill="#FAEEE0"></path>
                <path d="M27.5895854,4.36759613 L28.0864412,4.36759613 C28.0864412,4.08811476 27.8684638,3.87074037 27.5895854,3.87074037 C27.3098025,3.87074037 27.0921267,4.08811476 27.0921267,4.36759613 C27.0921267,4.6470775 27.310104,4.89550538 27.5895854,4.89550538 C27.8687653,4.89550538 28.0864412,4.6470775 28.0864412,4.36759613 L27.5895854,4.36759613 Z" id="Path" fill="#FBF0E3"></path>
                <path d="M27.5895854,4.36759613 L28.0553877,4.36759613 C28.0553877,4.11916825 27.8374103,3.90179385 27.5895854,3.90179385 C27.3411575,3.90179385 27.1231801,4.11916825 27.1231801,4.36759613 C27.1231801,4.6470775 27.3411575,4.83339841 27.5895854,4.83339841 C27.8374103,4.83339841 28.0553877,4.6470775 28.0553877,4.36759613 L27.5895854,4.36759613 Z" id="Path" fill="#FBF1E5"></path>
                <path d="M27.5895854,4.36759613 L28.0240327,4.36759613 C28.0240327,4.15022173 27.8374103,3.96390082 27.5895854,3.96390082 C27.3411575,3.96390082 27.1545351,4.15022173 27.1545351,4.36759613 C27.1545351,4.6163255 27.3411575,4.80264641 27.5895854,4.80264641 C27.8374103,4.80264641 28.0240327,4.6163255 28.0240327,4.36759613 L27.5895854,4.36759613 Z" id="Path" fill="#FBF1E7"></path>
                <path d="M27.5895854,4.36759613 L27.9929792,4.36759613 C27.9929792,4.15022173 27.8069598,3.99495431 27.5895854,3.99495431 C27.371608,3.99495431 27.1855886,4.15022173 27.1855886,4.36759613 C27.1855886,4.58527202 27.371608,4.77129144 27.5895854,4.77129144 C27.8069598,4.77129144 27.9929792,4.58497053 27.9929792,4.36759613 L27.5895854,4.36759613 Z" id="Path" fill="#FCF3E8"></path>
                <path d="M27.5895854,4.36759613 L27.9311737,4.36759613 C27.9311737,4.18127522 27.7756048,4.02600779 27.5895854,4.02600779 C27.402963,4.02600779 27.2473941,4.18157671 27.2473941,4.36759613 C27.2473941,4.58527202 27.402963,4.74053944 27.5895854,4.74053944 C27.7756048,4.74053944 27.9311737,4.58527202 27.9311737,4.36759613 L27.5895854,4.36759613 Z" id="Path" fill="#FCF3EA"></path>
                <path d="M27.5895854,4.36759613 L27.8998188,4.36759613 C27.8998188,4.2123287 27.7756048,4.05706128 27.5895854,4.05706128 C27.402963,4.05706128 27.2787491,4.2123287 27.2787491,4.36759613 C27.2787491,4.55421853 27.402963,4.67843247 27.5895854,4.67843247 C27.7756048,4.67843247 27.8998188,4.55421853 27.8998188,4.36759613 L27.5895854,4.36759613 Z" id="Path" fill="#FCF5ED"></path>
                <path d="M27.5895854,4.36759613 L27.8687679,4.36759613 C27.8687679,4.2123287 27.7445513,4.11916825 27.5895854,4.11916825 C27.4340165,4.11916825 27.3098025,4.2123287 27.3098025,4.36759613 C27.3098025,4.52286356 27.4340165,4.64707898 27.5895854,4.64707898 C27.6637547,4.64731927 27.7349515,4.61794194 27.7873691,4.56546778 C27.8397866,4.51299361 27.8690871,4.44176509 27.8687679,4.36759613 L27.5895854,4.36759613 L27.5895854,4.36759613 Z" id="Path" fill="#FCF5EF"></path>
                <path d="M27.5895854,4.36759613 L27.8374103,4.36759613 C27.8374103,4.24338219 27.7131964,4.15022173 27.5895854,4.15022173 C27.4653715,4.15022173 27.3411575,4.24368368 27.3411575,4.36759613 C27.3411575,4.49181007 27.4653715,4.6163255 27.5895854,4.6163255 C27.7131964,4.6163255 27.8374103,4.49181007 27.8374103,4.36759613 L27.5895854,4.36759613 Z" id="Path" fill="#FDF8F1"></path>
                <path d="M27.5895854,4.36759613 L27.7756048,4.36759613 C27.7756048,4.27443567 27.6824444,4.18127522 27.5895854,4.18127522 C27.495822,4.18127522 27.402963,4.27443567 27.402963,4.36759613 C27.402963,4.49181007 27.4961235,4.58527202 27.5895854,4.58527202 C27.6827459,4.58527202 27.7756048,4.49181007 27.7756048,4.36759613 L27.5895854,4.36759613 Z" id="Path" fill="#FDF8F3"></path>
                <path d="M27.5895854,4.36759613 L27.7445513,4.36759613 C27.7445513,4.30548916 27.6827459,4.2123287 27.5895854,4.2123287 C27.495822,4.2123287 27.4340165,4.30548916 27.4340165,4.36759613 C27.4340165,4.46075659 27.495822,4.52286356 27.5895854,4.52286356 C27.6827459,4.52286356 27.7445513,4.46075659 27.7445513,4.36759613 L27.5895854,4.36759613 Z" id="Path" fill="#FDF8F5"></path>
                <path d="M27.5895854,4.36759613 L27.7131964,4.36759613 C27.7131964,4.30548916 27.6513909,4.27443567 27.5895854,4.27443567 C27.5271769,4.27443567 27.4653715,4.30548916 27.4653715,4.36759613 C27.4653715,4.4297031 27.5271769,4.49181007 27.5895854,4.49181007 C27.6513909,4.49181007 27.7131964,4.4297031 27.7131964,4.36759613 L27.5895854,4.36759613 Z" id="Path" fill="#FEFBF6"></path>
                <path d="M27.5895854,4.36759613 L27.6513909,4.36759613 C27.6513909,4.33654264 27.6200359,4.30548916 27.5895854,4.30548916 C27.5582304,4.30548916 27.495822,4.33654264 27.495822,4.36759613 C27.495822,4.4297031 27.5582304,4.46075659 27.5895854,4.46075659 C27.6203374,4.46075659 27.6513909,4.4297031 27.6513909,4.36759613 L27.5895854,4.36759613 Z" id="Path" fill="#FFFFFB"></path>
                <path d="M27.5895854,4.36759613 L27.6203374,4.36759613 C27.6203374,4.36759613 27.6203374,4.33654264 27.5895854,4.33654264 C27.5582304,4.33654264 27.5582304,4.36759613 27.5582304,4.36759613 C27.5582304,4.39864962 27.5582304,4.4297031 27.5895854,4.4297031 C27.6203374,4.4297031 27.6203374,4.39864962 27.6203374,4.36759613 L27.5895854,4.36759613 Z" id="Path" fill="#FFFFFF"></path>
                <path d="M35.696354,5.79665943 L33.4909536,0.205524628 L31.6892484,0.205524628 L35.2305517,8.74734352 L36.1003508,8.74734352 L39.7034596,0.205524628 L37.9328079,0.205524628 L35.696354,5.79665943 Z M40.4490447,8.53027061 L45.0461665,8.53027061 L45.0461665,7.13226079 L42.0641274,7.13226079 L42.0641274,4.89580687 L44.9216511,4.89580687 L44.9216511,3.46704506 L42.0641274,3.46704506 L42.0641274,1.63428644 L45.0461665,1.63428644 L45.0461665,0.205524628 L40.4490447,0.205524628 L40.4490447,8.53027061 Z M51.4757454,2.65935295 C51.4757454,1.10637719 50.4193239,0.205524628 48.5250613,0.205524628 L46.1330385,0.205524628 L46.1330385,8.52996912 L47.7481212,8.52996912 L47.7481212,5.20634172 L47.9654956,5.20634172 L50.2019495,8.52996912 L52.1899756,8.52996912 L49.5808798,5.01971932 C50.7919657,4.77159293 51.4757454,3.93284734 51.4757454,2.65935295 L51.4757454,2.65935295 Z M48.2139235,4.05736277 L47.7481212,4.05736277 L47.7481212,1.51037399 L48.244977,1.51037399 C49.2700435,1.51037399 49.7976514,1.94512279 49.7976514,2.75281489 C49.7979527,3.591259 49.270345,4.05736277 48.2139235,4.05736277 L48.2139235,4.05736277 Z M0.376783092,10.9744512 L0.376783092,11.7203379 L1.2978355,11.7203379 L1.2978355,12.0221295 L0.376783092,12.0221295 L0.376783092,13.3215521 L0.0457469092,13.3215521 L0.0457469092,10.6723581 L1.32798451,10.6723581 L1.32798451,10.9744512 L0.376783092,10.9744512 Z M2.83995761,10.6723581 L3.17129528,10.6723581 L3.17129528,13.3215521 L2.83995761,13.3215521 L2.83995761,10.6723581 Z M4.77070052,10.5451293 L6.7575206,12.6299337 L6.7575206,10.6723581 L7.08855678,10.6723581 L7.08855678,13.4306915 L5.09962627,11.3470931 L5.09962627,13.3215521 L4.77070052,13.3215521 L4.77070052,10.5451293 L4.77070052,10.5451293 Z M10.1513952,12.3558791 L9.20773104,12.3558791 L9.67926163,11.2831772 L10.1513952,12.3558791 Z M10.2870658,12.6579722 L10.5891589,13.3215521 L10.9455203,13.3215521 L9.67956312,10.5599023 L8.41420896,13.3215521 L8.76906287,13.3215521 L9.07206047,12.6579722 L10.2870658,12.6579722 Z M12.2705695,10.5451293 L14.2595,12.6299337 L14.2595,10.6723581 L14.5908376,10.6723581 L14.5908376,13.4306915 L12.5994952,11.3470931 L12.5994952,13.3215521 L12.2705695,13.3215521 L12.2705695,10.5451293 L12.2705695,10.5451293 Z M18.1243022,11.1788616 C17.9358708,11.0094241 17.6747804,10.9186756 17.424845,10.9186756 C16.8324169,10.9186756 16.3789757,11.4140239 16.3789757,12.0010252 C16.3789757,12.5807908 16.8278945,13.0758376 17.4188152,13.0758376 C17.6793027,13.0758376 17.9277306,12.9781548 18.1240007,12.801783 L18.1240007,13.1925143 C17.9118933,13.3126802 17.6725418,13.3765142 17.4287644,13.3779307 C16.6717226,13.3779307 16.0470351,12.7773623 16.0470351,12.0109744 C16.0470351,11.2271 16.6759435,10.615075 17.4577075,10.615075 C17.6901564,10.615075 17.9250172,10.6723581 18.1236992,10.7950646 L18.1236992,11.1788616 L18.1243022,11.1788616 L18.1243022,11.1788616 Z M19.644717,10.6723581 L19.9739442,10.6723581 L19.9739442,13.3215521 L19.644717,13.3215521 L19.644717,10.6723581 Z M23.0602989,12.3558791 L22.1169362,12.3558791 L22.5908787,11.2831772 L23.0602989,12.3558791 L23.0602989,12.3558791 Z M23.196271,12.6579722 L23.4992686,13.3215521 L23.8541225,13.3215521 L22.5908787,10.5599023 L21.3249216,13.3215521 L21.678871,13.3215521 L21.9809642,12.6579722 L23.196271,12.6579722 L23.196271,12.6579722 Z M25.5412613,13.0209664 L26.3465415,13.0209664 L26.3465415,13.3215521 L25.2120341,13.3215521 L25.2120341,10.6723581 L25.5412613,10.6723581 L25.5412613,13.0209664 Z M31.0274776,11.1752437 C30.9316037,11.0091226 30.8043749,10.9250069 30.6023765,10.9250069 C30.3910319,10.9250069 30.1582815,11.0688177 30.1582815,11.3015681 C30.1582815,11.5080888 30.3651037,11.6178312 30.5291143,11.6808427 L30.7175457,11.7553107 C31.0950114,11.9021364 31.3760002,12.1101646 31.3760002,12.5524507 C31.3760002,13.0345334 31.0027554,13.3779307 30.5291143,13.3779307 C30.0997924,13.3779307 29.7660428,13.0622705 29.7111716,12.6368679 L30.0443182,12.5672237 C30.0400973,12.8581617 30.2722447,13.0692048 30.555344,13.0692048 C30.8408552,13.0692048 31.0440595,12.8310276 31.0440595,12.5524507 C31.0440595,12.268447 30.816133,12.144836 30.5882064,12.0492636 L30.4061064,11.9729866 C30.1028073,11.8427429 29.8290542,11.6708935 29.8290542,11.3015681 C29.8290542,10.8722461 30.2083288,10.615075 30.6099137,10.615075 C30.9038666,10.615075 31.1468677,10.7600918 31.2900755,11.0160569 L31.0274776,11.1752437 L31.0274776,11.1752437 Z M32.8716928,10.6723581 L34.2959323,10.6723581 L34.2959323,10.9744512 L33.2030305,10.9744512 L33.2030305,11.7170215 L34.2660847,11.7170215 L34.2660847,12.0188131 L33.2030305,12.0188131 L33.2030305,13.0209664 L34.2959323,13.0209664 L34.2959323,13.3215521 L32.8716928,13.3215521 L32.8716928,10.6723581 L32.8716928,10.6723581 Z M36.1715025,10.967517 L36.2562212,10.967517 C36.5860514,10.967517 36.9785916,11.027212 36.9785916,11.4426654 C36.9785916,11.8638472 36.6110751,11.9265571 36.2743106,11.9265571 L36.171201,11.9265571 L36.171201,10.967517 L36.1715025,10.967517 L36.1715025,10.967517 Z M36.6520778,12.1698597 C37.0349703,12.1234302 37.2879205,11.8080715 37.2879205,11.4278924 C37.2879205,11.1752437 37.1606917,10.9250069 36.9387949,10.7947631 C36.7286563,10.6756745 36.4754045,10.6723581 36.2411467,10.6723581 L35.8407678,10.6723581 L35.8407678,13.3215521 L36.171804,13.3215521 L36.171804,12.2021191 L36.307776,12.2021191 L37.0880325,13.3215521 L37.4878085,13.3215521 L36.6520778,12.1698597 L36.6520778,12.1698597 Z M39.7577278,12.63325 L40.5449186,10.6723581 L40.9076112,10.6723581 L39.7577278,13.4635539 L38.6057339,10.6723581 L38.9678236,10.6723581 L39.7577278,12.63325 Z M42.2567796,10.6723581 L42.5875143,10.6723581 L42.5875143,13.3215521 L42.2567796,13.3215521 L42.2567796,10.6723581 Z M46.1502234,11.1788616 C45.9593802,11.0094241 45.6979882,10.9186756 45.4471484,10.9186756 C44.8553232,10.9186756 44.401882,11.4140239 44.401882,12.0010252 C44.401882,12.5807908 44.8504994,13.0758376 45.4411186,13.0758376 C45.7019076,13.0758376 45.9527474,12.9781548 46.1502234,12.801783 L46.1502234,13.1925143 C45.9373784,13.3124801 45.6974979,13.3762891 45.4531782,13.3779307 C44.6982469,13.3779307 44.0705444,12.7773623 44.0705444,12.0109744 C44.0705444,11.2271 44.7024677,10.615075 45.4809153,10.615075 C45.7133642,10.615075 45.9485265,10.6723581 46.1505249,10.7950646 L46.1505249,11.1788616 L46.1502234,11.1788616 L46.1502234,11.1788616 Z M47.6763665,10.6723581 L49.1003045,10.6723581 L49.1003045,10.9744512 L48.0080057,10.9744512 L48.0080057,11.7170215 L49.0689495,11.7170215 L49.0689495,12.0188131 L48.0080057,12.0188131 L48.0080057,13.0209664 L49.1003045,13.0209664 L49.1003045,13.3215521 L47.6763665,13.3215521 L47.6763665,10.6723581 L47.6763665,10.6723581 Z M51.8194442,11.1752437 C51.7229673,11.0091226 51.5963415,10.9250069 51.396152,10.9250069 C51.1860134,10.9250069 50.953263,11.0688177 50.953263,11.3015681 C50.953263,11.5080888 51.1582763,11.6178312 51.3219854,11.6808427 L51.5134317,11.7553107 C51.8878824,11.9021364 52.1688713,12.1101646 52.1688713,12.5524507 C52.1688713,13.0345334 51.7962294,13.3779307 51.3219854,13.3779307 C50.8944724,13.3779307 50.5583109,13.0622705 50.5046456,12.6368679 L50.8368878,12.5672237 C50.8326669,12.8581617 51.0666233,13.0692048 51.3503255,13.0692048 C51.6352337,13.0692048 51.839644,12.8310276 51.839644,12.5524507 C51.839644,12.268447 51.6093055,12.144836 51.381982,12.0492636 L51.1995804,11.9729866 C50.8962813,11.8427429 50.6225283,11.6708935 50.6225283,11.3015681 C50.6225283,10.8722461 51.0024059,10.615075 51.4033878,10.615075 C51.6973407,10.615075 51.9409447,10.7600918 52.0859615,11.0160569 L51.8194442,11.1752437 L51.8194442,11.1752437 Z M52.4248364,0.943874002 C52.4248364,1.00778991 52.3811203,1.04155681 52.2924822,1.04155681 L52.2623332,1.04155681 L52.2623332,0.850713546 L52.2945926,0.850713546 C52.3826278,0.851015037 52.4248364,0.881164051 52.4248364,0.943874002 Z M52.6847209,1.44826702 L52.4432273,1.14496793 C52.5463369,1.1184368 52.6057305,1.04306426 52.6057305,0.93935165 C52.6057305,0.795842339 52.5050328,0.714741489 52.3259476,0.714741489 L52.0922928,0.714741489 L52.0922928,1.44826702 L52.2653481,1.44826702 L52.2653481,1.1642633 L52.4709644,1.44826702 L52.6847209,1.44826702 Z M52.9931453,1.08014755 C52.9931453,0.729815997 52.7082371,0.440988434 52.3624279,0.440988434 C52.1924306,0.439859438 52.029047,0.506787997 51.9086965,0.626855266 C51.7883461,0.746922534 51.7210328,0.910147996 51.7217555,1.08014755 C51.7217555,1.43620742 52.0078755,1.72021114 52.3624279,1.72021114 C52.7082371,1.71990964 52.9931453,1.43138357 52.9931453,1.08014755 Z M52.8641075,1.08195649 C52.8641075,1.36957809 52.6379899,1.60534339 52.359413,1.60534339 C52.0790272,1.60534339 51.8483872,1.37078405 51.8483872,1.08195649 C51.8483872,0.789812536 52.0769168,0.557665122 52.359413,0.557665122 C52.6379899,0.557665122 52.8641075,0.793430418 52.8641075,1.08195649 Z" id="Shape" fill="#000000"></path>
            </g>
        </g>
    </g>
</svg>