<svg xmlns="http://www.w3.org/2000/svg" viewBox="0 0 510.2 510.2"><path d="M448.9 111.5c22.7-14.3 37.7-33.8 45.1-58.6-22.1 12-44.1 20.3-66.1 24.8-19.8-21.7-44.8-32.8-74.8-32.8-29.3 0-54.1 10.5-74.4 31-20.1 20.7-30.3 45.8-30.3 75 0 8.9 1.1 16.9 3.3 23.6-86.5-3-158.1-39.8-214.5-110.5-9.6 17.3-14.3 34.9-14.3 53.2 0 37.5 15.4 67.2 46.3 89-17.6-1.5-33.1-6.1-46.3-13.5 0 26.7 7.7 49.1 23.1 68.8 15.4 19.5 35.3 31.9 59.5 37.2-8.8 2.3-18 3.4-27.5 3.4-8.8 0-15-.8-18.7-2.4 6.5 21.8 18.7 39.5 36.3 53 17.6 13.6 37.8 20.8 60.5 21.4-37.5 30.1-80.3 45-128.8 45-11.9 0-20.3-.2-25.4-1.1 47.7 31.8 100.9 47.5 159.6 47.5 60.2 0 113.3-15.6 159.6-46.8 46.3-31.1 80.4-69.4 102.3-114.5 22-45.1 33-92 33-141v-13.5c21.3-16.4 38.6-34.9 51.8-55.3-19 8.4-38.8 14.1-59.3 17.1z" fill-rule="evenodd" clip-rule="evenodd" fill="#333"/></svg>