<?xml version="1.0" encoding="UTF-8"?>
<svg width="49px" height="49px" viewBox="0 0 49 49" version="1.1" xmlns="http://www.w3.org/2000/svg" xmlns:xlink="http://www.w3.org/1999/xlink">
    <title>AC5301D4-AFE6-440F-B79D-822C2FE8F26E</title>
    <defs>
        <filter id="filter-1">
            <feColorMatrix in="SourceGraphic" type="matrix" values="0 0 0 0 0.239216 0 0 0 0 0.258824 0 0 0 0 0.274510 0 0 0 1.000000 0"></feColorMatrix>
        </filter>
    </defs>
    <g id="Page-1" stroke="none" stroke-width="1" fill="none" fill-rule="evenodd">
        <g id="noun_Alert_932108" transform="translate(-340.000000, -86.000000)" filter="url(#filter-1)">
            <g transform="translate(340.000000, 86.000000)">
                <path d="M24.5,49 C10.9690236,49 0,38.0309764 0,24.5 C0,10.9690236 10.9690236,0 24.5,0 C38.0309764,0 49,10.9690236 49,24.5 C49,38.0309764 38.0309764,49 24.5,49 Z M24.5,45.9375 C36.3396043,45.9375 45.9375,36.3396043 45.9375,24.5 C45.9375,12.6603957 36.3396043,3.0625 24.5,3.0625 C12.6603957,3.0625 3.0625,12.6603957 3.0625,24.5 C3.0625,36.3396043 12.6603957,45.9375 24.5,45.9375 Z M24.5,36.75 C22.808628,36.75 21.4375,35.378872 21.4375,33.6875 C21.4375,31.996128 22.808628,30.625 24.5,30.625 C26.191372,30.625 27.5625,31.996128 27.5625,33.6875 C27.5625,35.378872 26.191372,36.75 24.5,36.75 Z M21.7291207,15.1662067 C21.568063,13.5556303 22.7364549,12.25 24.356492,12.25 L24.643508,12.25 C26.2556227,12.25 27.4319465,13.5555352 27.2708793,15.1662067 L26.1836703,26.0382974 C26.0994909,26.8800912 25.351582,27.5625 24.5,27.5625 C23.6543141,27.5625 22.9009783,26.8847831 22.8163297,26.0382974 L21.7291207,15.1662067 Z" id="Shape" fill="#000000"></path>
            </g>
        </g>
    </g>
</svg>