<?xml version="1.0" encoding="UTF-8"?>
<svg width="30px" height="28px" viewBox="0 0 30 28" version="1.1" xmlns="http://www.w3.org/2000/svg" xmlns:xlink="http://www.w3.org/1999/xlink">
    <!-- Generator: Sketch 63 (92445) - https://sketch.com -->
    <title>cancellation</title>
    <desc>Created with Sketch.</desc>
    <g id="cancellation" stroke="none" stroke-width="1" fill="none" fill-rule="evenodd">
        <g id="noun_Calendar_2006687" transform="translate(6.000000, 6.000000)" fill="#818181" fill-rule="nonzero">
            <path d="M15.4342105,1.73407041 L14.2330263,1.73407041 L14.2330263,2.49910147 C14.2330263,2.92180664 13.8576842,3.26413254 13.3942105,3.26413254 C13.3669211,3.26413254 13.3418684,3.25923634 13.3154737,3.25678824 C13.5619737,3.12377484 13.7283947,2.881413 13.7283947,2.60110562 L13.7283947,1.07104349 C13.7283947,0.648746342 13.3530526,0.306012425 12.8895789,0.306012425 C12.4261053,0.306012425 12.0507632,0.648746342 12.0507632,1.07104349 L12.0507632,1.73407041 L5.45342105,1.73407041 L5.45342105,2.49910147 C5.45342105,2.92180664 5.07807895,3.26413254 4.61460526,3.26413254 C4.58731579,3.26413254 4.56226316,3.25923634 4.53586842,3.25678824 C4.78236842,3.12377484 4.94878947,2.881413 4.94878947,2.60110562 L4.94878947,1.07104349 C4.94878947,0.648746342 4.57344737,0.306012425 4.10997368,0.306012425 C3.6465,0.306012425 3.27115789,0.648746342 3.27115789,1.07104349 L3.27115789,1.73407041 L1.56578947,1.73407041 C0.8245,1.73407041 0.223684211,2.28244468 0.223684211,2.95812011 L0.223684211,13.1585343 C0.223684211,13.8346177 0.8245,14.382584 1.56578947,14.382584 L15.4342105,14.382584 C16.1755,14.382584 16.7763158,13.8346177 16.7763158,13.1585343 L16.7763158,2.95812011 C16.7763158,2.28244468 16.1755,1.73407041 15.4342105,1.73407041 Z M14.9121316,12.4787787 L2.08786842,12.4787787 L2.08786842,6.22225265 L14.9125789,6.22225265 L14.9125789,12.4787787 L14.9121316,12.4787787 Z" id="Shape"></path>
            <path d="M6.222,11.428136 C6.35307895,11.5476849 6.52486842,11.6072553 6.69665789,11.6072553 C6.86844737,11.6072553 7.04023684,11.5476849 7.17131579,11.428136 L8.5,10.2159188 L9.82913158,11.428136 C9.96021053,11.5476849 10.132,11.6072553 10.3037895,11.6072553 C10.4755789,11.6072553 10.6473684,11.5476849 10.7784474,11.428136 C11.0406053,11.1894463 11.0406053,10.8014226 10.7784474,10.5627329 L9.44931579,9.35051567 L10.7784474,8.13829845 C11.0406053,7.89960876 11.0406053,7.511585 10.7784474,7.27289531 C10.5162895,7.0337976 10.0917368,7.0337976 9.82957895,7.27289531 L8.5,8.48511253 L7.17086842,7.27289531 C6.90871053,7.0337976 6.48415789,7.0337976 6.222,7.27289531 C5.95984211,7.511585 5.95984211,7.89960876 6.222,8.13829845 L7.55113158,9.35051567 L6.222,10.5627329 C5.95984211,10.8014226 5.95984211,11.1894463 6.222,11.428136 Z" id="Path"></path>
        </g>
    </g>
</svg>