<?xml version="1.0" encoding="UTF-8"?>
<svg width="30px" height="28px" viewBox="0 0 30 28" version="1.1" xmlns="http://www.w3.org/2000/svg" xmlns:xlink="http://www.w3.org/1999/xlink">
    <!-- Generator: Sketch 63 (92445) - https://sketch.com -->
    <title>Credit card</title>
    <desc>Created with Sketch.</desc>
    <g id="Credit-card" stroke="none" stroke-width="1" fill="none" fill-rule="evenodd">
        <g id="noun_credit-cards_2372037" transform="translate(6.000000, 7.000000)" fill="#818181" fill-rule="nonzero">
            <path d="M2.77834993,-7.41994255e-16 L15.2037269,-7.41994255e-16 C16.7328307,-7.41994255e-16 17.9820768,1.27374111 17.9820768,2.83282738 L17.9820768,9.90902184 C17.9820768,11.4681081 16.7328307,12.7418492 15.2037269,12.7418492 L2.77834993,12.7418492 C1.24924609,12.7418492 0,11.4681081 0,9.90902184 L0,2.83282738 C0,1.27374111 1.24924609,-7.41994255e-16 2.77834993,-7.41994255e-16 Z M7.84702703,8.11732909 L2.77911807,8.10401138 C1.97769559,8.10192285 1.98512091,6.86629738 2.78654339,6.86838326 L7.85470839,6.88196134 C8.65613087,6.88404987 8.64819346,8.11967534 7.84702703,8.11732909 Z M13.7007397,7.40148272 C14.4629872,7.40148272 15.080569,8.03117396 15.080569,8.80810643 C15.080569,9.58503891 14.4629872,10.2149912 13.7007397,10.2149912 C13.3351067,10.2149912 13.0030156,10.0698385 12.7561878,9.83331269 C12.5091038,10.0698385 12.1767568,10.2149912 11.8111238,10.2149912 C11.0491323,10.2149912 10.4315505,9.58503891 10.4315505,8.80810643 C10.4315505,8.03117396 11.0491323,7.40148272 11.8111238,7.40148272 C12.1767568,7.40148272 12.5091038,7.54637436 12.7561878,7.78316124 C13.0030156,7.54637436 13.3351067,7.40148272 13.7007397,7.40148272 Z M7.84702703,10.3199431 L2.77911807,10.3066254 C1.97769559,10.3045369 1.98512091,9.06917245 2.78654339,9.07099789 L7.85470839,9.08483642 C8.65613087,9.08692494 8.64819346,10.3222893 7.84702703,10.3199431 Z M16.9617354,5.59673333 L1.02034139,5.59673333 L1.02034139,9.90902184 C1.02034139,10.8937629 1.81254623,11.7015011 2.77834993,11.7015011 L15.2037269,11.7015011 C16.1695306,11.7015011 16.9617354,10.8937629 16.9617354,9.90902184 L16.9617354,5.59673333 L16.9617354,5.59673333 Z M1.02034139,2.9724977 L16.9617354,2.9724977 L16.9617354,2.83282738 C16.9617354,1.84808635 16.1695306,1.04034809 15.2037269,1.04034809 L2.77834993,1.04034809 C1.81254623,1.04034809 1.02034139,1.84808635 1.02034139,2.83282738 L1.02034139,2.9724977 Z" id="Shape"></path>
        </g>
    </g>
</svg>