<?xml version="1.0" encoding="UTF-8"?>
<svg width="30px" height="28px" viewBox="0 0 30 28" version="1.1" xmlns="http://www.w3.org/2000/svg" xmlns:xlink="http://www.w3.org/1999/xlink">
    <!-- Generator: Sketch 63 (92445) - https://sketch.com -->
    <title>deposit</title>
    <desc>Created with Sketch.</desc>
    <g id="deposit" stroke="none" stroke-width="1" fill="none" fill-rule="evenodd">
        <g id="noun_deposit_2289454" transform="translate(6.000000, 4.000000)" fill="#818181" fill-rule="nonzero">
            <path d="M17.25,9.75 L0.75,9.75 C0.3355,9.75 0,10.08575 0,10.5 L0,19.5 C0,19.91425 0.3355,20.25 0.75,20.25 L17.25,20.25 C17.6645,20.25 18,19.91425 18,19.5 L18,10.5 C18,10.08575 17.6645,9.75 17.25,9.75 Z M14.356,18.75 L3.644,18.75 C3.372,17.6995 2.55075,16.87825 1.5,16.606 L1.5,13.394 C2.5505,13.12175 3.37175,12.30075 3.644,11.25 L14.35625,11.25 C14.6285,12.3005 15.4495,13.12175 16.50025,13.394 L16.50025,16.60625 C15.4495,16.878 14.62825,17.69925 14.356,18.75 Z" id="Shape"></path>
            <path d="M11.25,15 C11.25,16.24075 10.24075,17.25 9,17.25 C7.75925,17.25 6.75,16.24075 6.75,15 C6.75,13.75925 7.75925,12.75 9,12.75 C10.24075,12.75 11.25,13.75925 11.25,15 Z" id="Path"></path>
            <path d="M12.53025,5.03025 L9.53025,8.03025 C9.2375,8.323 8.7625,8.323 8.46975,8.03025 L5.46975,5.03025 C5.25525,4.81575 5.19075,4.4935 5.30725,4.21275 C5.42275,3.93275 5.69675,3.75 6,3.75 L7.5,3.75 L7.5,1.5 C7.5,0.6715 8.1715,-1.7985613e-14 9,-1.7985613e-14 L9,-1.7985613e-14 C9.8285,-1.7985613e-14 10.5,0.6715 10.5,1.5 L10.5,3.75 L12,3.75 C12.30325,3.75 12.57725,3.93275 12.69275,4.213 C12.80925,4.4935 12.74475,4.81575 12.53025,5.03025 Z" id="Path"></path>
        </g>
    </g>
</svg>