<?xml version="1.0" encoding="UTF-8"?>
<svg width="19px" height="16px" viewBox="0 0 19 16" version="1.1" xmlns="http://www.w3.org/2000/svg" xmlns:xlink="http://www.w3.org/1999/xlink">
    <title>90B2E30B-F685-4F0B-AEA1-7686E573CAF3</title>
    <defs>
        <filter id="filter-1">
            <feColorMatrix in="SourceGraphic" type="matrix" values="0 0 0 0 1.000000 0 0 0 0 1.000000 0 0 0 0 1.000000 0 0 0 1.000000 0"></feColorMatrix>
        </filter>
    </defs>
    <g id="Page-1" stroke="none" stroke-width="1" fill="none" fill-rule="evenodd">
        <g id="noun_gallery_1536972" transform="translate(-300.000000, -479.000000)" filter="url(#filter-1)">
            <g transform="translate(300.000000, 479.000000)" id="Group" fill="#000000" fill-rule="nonzero">
                <path d="M17.8125,2.17708333 L17.4166667,2.17708333 L17.4166667,1.38541667 C17.4166667,0.7125 16.9020833,0.197916667 16.2291667,0.197916667 L1.1875,0.197916667 C0.514583333,0.197916667 0,0.7125 0,1.38541667 L0,12.0729167 C0,12.7458333 0.514583333,13.2604167 1.1875,13.2604167 L1.97916667,13.2604167 L1.97916667,13.65625 C1.97916667,14.3291667 2.49375,14.84375 3.16666667,14.84375 C8.19375,14.84375 8.86666667,14.84375 17.8125,14.84375 C18.4854167,14.84375 19,14.3291667 19,13.65625 C19,10.09375 19,6.92708333 19,3.36458333 C19,2.69166667 18.4854167,2.17708333 17.8125,2.17708333 Z M0.791666667,12.0729167 C0.95,1.62291667 0.435416667,0.989583333 1.1875,0.989583333 C16.15,1.14791667 16.625,0.633333333 16.625,1.38541667 L16.625,2.17708333 L3.16666667,2.17708333 C2.49375,2.17708333 1.97916667,2.69166667 1.97916667,3.36458333 L1.97916667,12.46875 C1.62291667,12.4291667 0.791666667,12.6666667 0.791666667,12.0729167 Z M5.62083333,14.0520833 C5.62083333,14.0520833 5.62083333,14.0520833 5.62083333,14.0520833 C3.76041667,13.9333333 2.77083333,14.36875 2.77083333,13.65625 L2.77083333,13.2604167 C2.92916667,3.68125 2.41458333,2.96875 3.16666667,2.96875 C18.0895833,3.12708333 18.2083333,2.6125 18.2083333,3.36458333 L18.2083333,9.025 L15.6354167,6.05625 C15.5166667,5.9375 15.2791667,5.9375 15.31875,5.9375 C15.31875,5.9375 15.31875,5.9375 15.31875,5.9375 C15.2,5.9375 15.08125,6.01666667 15.0020833,6.13541667 L12.8645833,9.46041667 C10.925,7.40208333 11.0041667,7.20416667 10.6479167,7.20416667 C10.2916667,7.20416667 10.5291667,7.20416667 5.62083333,14.0520833 Z M17.8125,14.0520833 L6.57083333,14.0520833 L10.7270833,8.23333333 C12.6666667,10.33125 12.6270833,10.5291667 12.94375,10.4895833 C13.0625,10.4895833 13.18125,10.4104167 13.2604167,10.2916667 L15.3979167,6.96666667 L18.2083333,10.2125 C18.0895833,13.0625 18.525,14.0520833 17.8125,14.0520833 Z" id="Shape"></path>
                <path d="M5.9375,4.15625 C4.82916667,4.15625 3.95833333,5.02708333 3.95833333,6.13541667 C3.95833333,7.24375 4.82916667,8.11458333 5.9375,8.11458333 C7.04583333,8.11458333 7.91666667,7.24375 7.91666667,6.13541667 C7.91666667,5.02708333 7.04583333,4.15625 5.9375,4.15625 Z M4.75,6.13541667 C4.75,4.55208333 7.125,4.55208333 7.125,6.13541667 C7.125,7.71875 4.75,7.71875 4.75,6.13541667 Z" id="Shape"></path>
            </g>
        </g>
    </g>
</svg>