<?xml version="1.0" encoding="UTF-8"?>
<svg width="19px" height="18px" viewBox="0 0 19 18" version="1.1" xmlns="http://www.w3.org/2000/svg" xmlns:xlink="http://www.w3.org/1999/xlink">
    <title>38F7687B-B4EB-4572-A1CC-67095BFBF2FE</title>
    <g id="Page-1" stroke="none" stroke-width="1" fill="none" fill-rule="evenodd">
        <g id="V2-05" transform="translate(-1250.000000, -232.000000)" fill="#000000" fill-rule="nonzero">
            <g id="noun_Map_3485501" transform="translate(1250.000000, 232.000000)">
                <path d="M17.7603,0.140741379 C17.6136664,0.036826431 17.4257302,0.0105142104 17.2561966,0.0701637931 L11.8133379,1.98438103 L6.37047931,0.0701637931 C6.25154506,0.0281968595 6.12181462,0.0282936228 6.0029431,0.070437931 L6.00284483,0.0701637931 L0.376168966,2.04902069 C0.154327949,2.12702372 0.00590689655,2.33656906 0.00590689655,2.57172414 L0.00590689655,16.786319 C0.00590689655,16.9660265 0.0930617646,17.1345729 0.239704791,17.2384508 C0.386347818,17.3423287 0.574262669,17.3686346 0.743793103,17.3090172 L6.18665172,15.3948 L11.6295207,17.3090172 C11.7483405,17.3514051 11.8782186,17.3510558 11.9968086,17.3080293 L11.9971552,17.3090172 L17.623831,15.3301603 C17.8456703,15.2521579 17.9940931,15.0426152 17.9940931,14.8074621 L17.9940931,0.592862069 C17.9940931,0.413158727 17.90694,0.244616279 17.7603,0.140741379 Z M16.8859345,14.415 L11.8133483,16.1989655 L6.37047931,14.284769 C6.25154608,14.2427978 6.12181478,14.2428928 6.0029431,14.2850379 L6.00284483,14.284769 L1.11406552,16.004131 L1.11406552,2.96416552 L5.63258276,1.37505 L5.63258276,3.51847759 C5.63258276,3.82448714 5.88065252,4.0725569 6.18666207,4.0725569 C6.49267162,4.0725569 6.74074138,3.82448714 6.74074138,3.51847759 L6.74074138,1.37505 L11.2592586,2.96419655 L11.2592586,5.24232414 C11.2592586,5.54833369 11.5073284,5.79640345 11.8133379,5.79640345 C12.1193475,5.79640345 12.3674172,5.54833369 12.3674172,5.24232414 L12.3674172,2.96419655 L16.8859345,1.37505 L16.8859345,14.415 Z" id="Shape"></path>
                <path d="M6.18666207,5.33902241 C6.03970852,5.33902241 5.89877231,5.39739192 5.79486094,5.50130425 C5.69094958,5.60521659 5.63258276,5.74615335 5.63258276,5.8931069 L5.63258276,8.26773103 C5.63258276,8.57374057 5.88065253,8.82181031 6.18666207,8.82181031 C6.49267161,8.82181031 6.74074138,8.57374057 6.74074138,8.26773103 L6.74074138,5.8931069 C6.74074138,5.74615335 6.68237456,5.60521659 6.5784632,5.50130425 C6.47455183,5.39739192 6.33361562,5.33902241 6.18666207,5.33902241 Z" id="Path"></path>
                <path d="M6.18666207,10.0882759 C6.039709,10.0882759 5.89877277,10.1466428 5.79486126,10.2505544 C5.69094974,10.3544659 5.63258276,10.4954021 5.63258276,10.6423552 L5.63258276,13.0169793 C5.63258276,13.3229889 5.88065253,13.5710586 6.18666207,13.5710586 C6.49267161,13.5710586 6.74074138,13.3229889 6.74074138,13.0169793 L6.74074138,10.6423603 C6.74074138,10.4954064 6.68237637,10.3544688 6.57846471,10.2505562 C6.47455305,10.1466436 6.33361604,10.0882759 6.18666207,10.0882759 L6.18666207,10.0882759 Z" id="Path"></path>
                <path d="M11.8133379,7.06286897 C11.6663853,7.06286897 11.5254498,7.12123776 11.4215386,7.22514898 C11.3176274,7.32906019 11.2592586,7.46999562 11.2592586,7.61694828 L11.2592586,9.99160345 C11.2592586,10.297613 11.5073284,10.5456828 11.8133379,10.5456828 C12.1193475,10.5456828 12.3674172,10.297613 12.3674172,9.99160345 L12.3674172,7.61694828 C12.3674172,7.46999562 12.3090484,7.32906019 12.2051372,7.22514898 C12.101226,7.12123776 11.9602906,7.06286897 11.8133379,7.06286897 Z" id="Path"></path>
                <path d="M11.8133379,11.8121276 C11.6663849,11.8121276 11.5254486,11.8704946 11.4215371,11.9744061 C11.3176256,12.0783176 11.2592586,12.2192538 11.2592586,12.3662069 L11.2592586,14.740831 C11.2592586,15.0468406 11.5073284,15.2949103 11.8133379,15.2949103 C12.1193475,15.2949103 12.3674172,15.0468406 12.3674172,14.740831 L12.3674172,12.3662069 C12.3674172,12.2192538 12.3090503,12.0783176 12.2051387,11.9744061 C12.1012272,11.8704946 11.960291,11.8121276 11.8133379,11.8121276 L11.8133379,11.8121276 Z" id="Path"></path>
            </g>
        </g>
    </g>
</svg>