<?xml version="1.0" encoding="UTF-8"?>
<svg width="142px" height="48px" viewBox="0 0 142 48" version="1.1" xmlns="http://www.w3.org/2000/svg" xmlns:xlink="http://www.w3.org/1999/xlink">
    <!-- Generator: Sketch 54.1 (76490) - https://sketchapp.com -->
    <title>PG_logo_Dimension_gray</title>
    <desc>Created with Sketch.</desc>
    <defs>
        <linearGradient x1="-43.6952266%" y1="34.6193161%" x2="64.3969691%" y2="48.9699736%" id="linearGradient-1">
            <stop stop-color="#FFFFFF" offset="0%"></stop>
            <stop stop-color="#9A9A9B" offset="100%"></stop>
        </linearGradient>
        <linearGradient x1="-22.2682158%" y1="77.4983489%" x2="127.978697%" y2="32.3346714%" id="linearGradient-2">
            <stop stop-color="#FFFFFF" offset="0%"></stop>
            <stop stop-color="#9A9A9B" offset="100%"></stop>
        </linearGradient>
    </defs>
    <g id="Symbols" stroke="none" stroke-width="1" fill="none" fill-rule="evenodd">
        <g id="Nav-Dark" transform="translate(-4.000000, -2.000000)" fill-rule="nonzero">
            <g id="PG_logo_Dimension_gray" transform="translate(4.000000, 2.000000)">
                <path d="M33.73,1.505 L16.57,18.665 L2.065,7.445 C1.665,7.135 1.815,6.495 2.315,6.4 L33.205,0.51 C33.775,0.405 34.14,1.095 33.73,1.505 Z" id="Path" fill="url(#linearGradient-1)"></path>
                <path d="M33.73,1.51 L16.54,18.565 L0.61,18.565 C-0.01,18.565 -0.21,17.73 0.345,17.45 L33.05,0.565 C33.645,0.27 34.2,1.035 33.73,1.51 Z" id="Path" fill="url(#linearGradient-2)"></path>
                <g id="Group" transform="translate(22.500000, 23.500000)" fill="#9A9A9B">
                    <path d="M4.47,22.92 L0.425,23.82 L0.425,1.145 L4.47,1.145 C5.69,0.72 6.83,0.515 7.985,0.515 C10.415,0.515 12.385,1.28 13.895,2.81 C15.425,4.34 16.19,6.325 16.19,8.755 C16.19,11.32 15.375,13.36 13.725,14.87 C12.095,16.38 9.905,17.145 7.135,17.145 C6.455,17.145 5.71,17.095 4.47,16.91 L4.47,22.92 L4.47,22.92 Z M4.47,13.9 C5.335,14.155 6.115,14.255 6.865,14.255 C8.445,14.255 9.7,13.76 10.635,12.76 C11.57,11.76 12.045,10.4 12.045,8.715 C12.045,7.155 11.605,5.895 10.72,4.945 C9.855,3.975 8.7,3.5 7.29,3.5 C6.39,3.5 5.49,3.65 4.47,3.99 L4.47,13.9 L4.47,13.9 Z" id="Shape"></path>
                    <path d="M32.865,15.685 C30.485,16.685 28.515,17.145 26.665,17.145 C24.27,17.145 22.28,16.365 20.705,14.785 C19.14,13.205 18.36,11.215 18.36,8.79 C18.36,6.38 19.14,4.39 20.705,2.81 C22.285,1.23 24.27,0.45 26.665,0.45 C28.855,0.45 30.605,1.06 31.915,2.285 C33.24,3.49 33.9,5.105 33.9,7.125 C33.9,7.395 33.885,7.84 33.85,8.465 C33.835,8.565 33.835,8.635 33.835,8.685 L33.445,9.315 L22.42,9.705 C22.625,12.37 24.355,13.95 27.195,13.95 C28.895,13.95 30.645,13.405 33.275,11.995 L32.865,15.685 Z M30.08,7.09 L30.08,6.885 C30.08,5.935 29.755,5.17 29.13,4.575 C28.5,3.98 27.67,3.675 26.665,3.675 C24.44,3.675 22.91,5.07 22.485,7.445 L30.08,7.09 Z" id="Shape"></path>
                    <path d="M44.015,20.595 C46.545,20.595 48.04,19.305 48.04,17.11 L48.04,16.14 C46.46,16.8 45.085,17.14 43.93,17.14 C41.585,17.14 39.685,16.39 38.24,14.915 C36.795,13.42 36.085,11.465 36.085,9.07 C36.085,6.675 36.865,4.655 38.43,3.005 C40.01,1.36 41.895,0.54 44.12,0.54 C45.36,0.54 46.685,0.845 48.18,1.51 L51.83,1.135 L51.83,15.65 C51.83,17.025 51.745,18.045 51.59,18.74 C51.44,19.435 51.18,20.065 50.825,20.625 C49.485,22.665 46.885,23.82 43.485,23.82 C41.38,23.82 39.39,23.38 37.605,22.495 L37.35,18.875 C40.02,20.085 42.095,20.595 44.015,20.595 Z M48.075,4.405 C46.935,3.795 45.97,3.505 44.95,3.505 C43.525,3.505 42.37,4.03 41.485,5.065 C40.62,6.1 40.175,7.495 40.175,9.21 C40.175,12.215 41.805,14.02 44.525,14.02 C45.665,14.02 46.8,13.68 48.075,12.935 L48.075,4.405 L48.075,4.405 Z" id="Shape"></path>
                    <path d="M66.87,15.99 C65.155,16.755 63.69,17.145 62.4,17.145 C60.055,17.145 58.155,16.395 56.71,14.92 C55.265,13.425 54.555,11.47 54.555,9.075 C54.555,6.68 55.335,4.66 56.9,3.01 C58.48,1.365 60.365,0.545 62.59,0.545 C63.83,0.545 65.155,0.85 66.65,1.515 L70.3,1.14 L70.3,11.825 C70.3,13.455 70.47,15 70.795,16.445 L67.145,17.175 L66.87,15.99 Z M66.275,4.405 C65.12,3.795 64.185,3.505 63.42,3.505 C61.995,3.505 60.84,4.03 59.955,5.065 C59.09,6.1 58.645,7.495 58.645,9.21 C58.645,12.215 60.275,14.02 62.995,14.02 C63.945,14.02 65.035,13.665 66.275,12.935 L66.275,4.405 L66.275,4.405 Z" id="Shape"></path>
                    <path d="M79.465,13.955 C80.775,13.955 81.555,13.395 81.555,12.445 C81.555,12.09 81.405,11.785 81.115,11.53 C80.825,11.255 80.23,10.935 79.33,10.545 L77.87,9.915 C75.155,8.76 73.86,7.265 73.86,5.21 C73.86,3.765 74.385,2.61 75.44,1.745 C76.495,0.86 77.885,0.42 79.605,0.42 C81.355,0.42 83.255,0.915 84.905,1.815 L84.515,5.4 C82.255,4.11 80.725,3.515 79.705,3.515 C78.635,3.515 77.94,4.075 77.94,4.875 C77.94,5.535 78.4,6.03 79.435,6.505 L81.795,7.625 C83.275,8.29 84.275,8.97 84.8,9.645 C85.325,10.305 85.6,11.175 85.6,12.21 C85.6,13.72 85.075,14.945 84.005,15.845 C82.95,16.745 81.54,17.185 79.79,17.185 C77.805,17.185 75.865,16.775 74.015,15.96 L74.15,12.205 C76.25,13.36 78.02,13.955 79.465,13.955 Z" id="Path"></path>
                    <path d="M92.81,1.145 L92.81,10.71 C92.81,12.56 93.78,13.565 95.595,13.565 C98.26,13.565 99.74,12.255 99.74,9.88 L99.74,1.145 L103.785,1.145 L103.785,16.45 L100.135,17.18 L99.985,14.09 C98.3,16.075 96.385,17.045 94.075,17.045 C90.625,17.045 88.79,15.16 88.79,11.575 L88.79,1.145 L92.81,1.145 Z" id="Path"></path>
                    <path d="M113.19,13.955 C114.5,13.955 115.28,13.395 115.28,12.445 C115.28,12.09 115.13,11.785 114.84,11.53 C114.55,11.255 113.955,10.935 113.055,10.545 L111.595,9.915 C108.88,8.76 107.585,7.265 107.585,5.21 C107.585,3.765 108.11,2.61 109.165,1.745 C110.22,0.86 111.61,0.42 113.33,0.42 C115.08,0.42 116.98,0.915 118.63,1.815 L118.24,5.4 C115.98,4.11 114.45,3.515 113.43,3.515 C112.36,3.515 111.3,4.075 111.3,4.875 C111.3,5.535 112.12,6.03 113.155,6.505 L115.515,7.625 C116.995,8.29 117.995,8.97 118.52,9.645 C119.045,10.305 119.32,11.175 119.32,12.21 C119.32,13.72 118.795,14.945 117.725,15.845 C116.67,16.745 115.26,17.185 113.51,17.185 C111.525,17.185 109.585,16.775 107.735,15.96 L107.87,12.205 C109.98,13.36 111.745,13.955 113.19,13.955 Z" id="Path"></path>
                </g>
            </g>
        </g>
    </g>
</svg>